<svg width="162" height="115" viewBox="0 0 162 115" fill="none" xmlns="http://www.w3.org/2000/svg">
<path d="M106.413 88.6722C106.735 89.4291 106.653 90.4622 106.667 91.23C106.73 94.61 106.737 97.9932 106.688 101.373C106.677 102.103 106.655 102.832 106.63 103.56C106.623 103.751 106.321 104.49 106.703 104.33C107.662 103.926 108.497 103.272 109.366 102.714C111.671 101.231 114.176 100.243 116.685 99.233" stroke="#3F8CD6" stroke-width="2" stroke-linecap="round"/>
<path d="M112.623 25.1313C120.513 35.9707 130.385 66.9129 106.751 103.967" stroke="#3F8CD6" stroke-width="2" stroke-linecap="round"/>
<path d="M0.407349 15.3121L5.38335 0.976074L6.55135 1.40807L1.57535 15.7441L0.407349 15.3121Z" fill="#3F8CD6"/>
<path d="M8.5011 15.3121L13.4771 0.976074L14.6451 1.40807L9.6691 15.7441L8.5011 15.3121Z" fill="#3F8CD6"/>
<path d="M28.8555 14.0001H27.0795L24.4715 10.6401C24.3008 10.6614 24.1621 10.6721 24.0555 10.6721H23.4475V14.0001H21.8955V6.03207H23.4475V9.29607H24.1035L26.0875 6.62407C26.3755 6.22941 26.7968 6.03207 27.3515 6.03207H28.6475V7.37607H27.3515L25.5915 9.71207L28.8555 14.0001Z" fill="#3F8CD6"/>
<path d="M30.013 11.7921C30.013 10.4267 30.9196 9.63741 32.733 9.42407L35.789 9.10407C35.757 8.45341 35.5596 7.96807 35.197 7.64807C34.8343 7.31741 34.3223 7.15207 33.661 7.15207C33.053 7.15207 32.5516 7.30674 32.157 7.61607C31.7623 7.91474 31.565 8.37874 31.565 9.00807H30.061C30.061 8.43207 30.205 7.90407 30.493 7.42407C30.781 6.94407 31.197 6.56541 31.741 6.28807C32.285 6.01074 32.925 5.87207 33.661 5.87207C34.781 5.87207 35.6716 6.19741 36.333 6.84807C37.005 7.49874 37.341 8.37874 37.341 9.48807V12.6561H38.509V14.0001H37.021C36.7116 14.0001 36.4663 13.9147 36.285 13.7441C36.1143 13.5734 36.029 13.3281 36.029 13.0081V12.6401L36.269 11.7921H35.853C35.6823 12.4961 35.3463 13.0667 34.845 13.5041C34.3436 13.9414 33.6343 14.1601 32.717 14.1601C31.6823 14.1601 30.973 13.9147 30.589 13.4241C30.205 12.9334 30.013 12.3894 30.013 11.7921ZM31.565 11.5681C31.565 11.9734 31.6876 12.2827 31.933 12.4961C32.189 12.7094 32.525 12.8161 32.941 12.8161C33.5063 12.8161 34.0023 12.7041 34.429 12.4801C34.8663 12.2561 35.2023 11.9467 35.437 11.5521C35.6716 11.1467 35.789 10.6934 35.789 10.1921L33.005 10.4801C32.5036 10.5334 32.1356 10.6401 31.901 10.8001C31.677 10.9601 31.565 11.2161 31.565 11.5681Z" fill="#3F8CD6"/>
<path d="M45.1005 6.03207H46.6525V14.0001H45.1005V11.1201L40.1725 11.4401C39.4045 11.4827 39.0205 11.1041 39.0205 10.3041V6.03207H40.5725V10.0801L45.1005 9.77607V6.03207Z" fill="#3F8CD6"/>
<path d="M48.6067 9.90407C48.6067 9.07207 48.7721 8.35207 49.1027 7.74407C49.4334 7.13607 49.8921 6.67207 50.4787 6.35207C51.0761 6.03207 51.7587 5.87207 52.5267 5.87207C53.6894 5.87207 54.6174 6.21874 55.3107 6.91207C56.0041 7.59474 56.3507 8.53874 56.3507 9.74407V10.3201H50.1107C50.1427 11.0774 50.3667 11.6907 50.7827 12.1601C51.2094 12.6294 51.8601 12.8641 52.7347 12.8641C53.3534 12.8641 53.8601 12.7254 54.2547 12.4481C54.6601 12.1601 54.9321 11.7441 55.0707 11.2001H56.6227C56.5267 11.6694 56.3294 12.1281 56.0307 12.5761C55.7427 13.0241 55.3214 13.4027 54.7667 13.7121C54.2121 14.0107 53.5347 14.1601 52.7347 14.1601C51.8067 14.1601 51.0334 13.9734 50.4147 13.6001C49.7961 13.2161 49.3374 12.7041 49.0387 12.0641C48.7507 11.4134 48.6067 10.6934 48.6067 9.90407ZM54.8467 9.23207C54.8467 8.63474 54.6441 8.13874 54.2387 7.74407C53.8441 7.34941 53.2734 7.15207 52.5267 7.15207C51.7801 7.15207 51.1881 7.35474 50.7507 7.76007C50.3241 8.15474 50.1107 8.64541 50.1107 9.23207H54.8467Z" fill="#3F8CD6"/>
<path d="M57.9817 10.0001C57.9817 9.21074 58.1471 8.50674 58.4777 7.88807C58.8084 7.25874 59.2831 6.76807 59.9017 6.41607C60.5311 6.05341 61.2671 5.87207 62.1097 5.87207C62.7071 5.87207 63.2831 5.98941 63.8377 6.22407C64.4031 6.44807 64.8777 6.80541 65.2617 7.29607C65.6564 7.77607 65.8804 8.37874 65.9337 9.10407H64.3657C64.2697 8.45341 64.0191 7.97874 63.6137 7.68007C63.2084 7.37074 62.7071 7.21607 62.1097 7.21607C61.2671 7.21607 60.6271 7.47741 60.1897 8.00007C59.7524 8.51207 59.5337 9.17874 59.5337 10.0001C59.5337 10.8321 59.7524 11.5094 60.1897 12.0321C60.6271 12.5547 61.2671 12.8161 62.1097 12.8161C62.7071 12.8161 63.2084 12.6667 63.6137 12.3681C64.0191 12.0587 64.2697 11.5787 64.3657 10.9281H65.9337C65.8804 11.6534 65.6564 12.2614 65.2617 12.7521C64.8777 13.2321 64.4031 13.5894 63.8377 13.8241C63.2831 14.0481 62.7071 14.1601 62.1097 14.1601C61.2671 14.1601 60.5311 13.9841 59.9017 13.6321C59.2831 13.2694 58.8084 12.7734 58.4777 12.1441C58.1471 11.5147 57.9817 10.8001 57.9817 10.0001Z" fill="#3F8CD6"/>
<path d="M74.171 6.03207V7.37607H71.163V14.0001H69.611V7.37607H66.603V6.03207H74.171Z" fill="#3F8CD6"/>
<path d="M75.6455 14.0001V6.03207H78.6855C79.7415 6.03207 80.5468 6.17074 81.1015 6.44807C81.6561 6.72541 81.9335 7.22141 81.9335 7.93607C81.9335 8.52274 81.7735 8.94407 81.4535 9.20007C81.1335 9.44541 80.7601 9.58407 80.3335 9.61607V10.0321C81.7948 10.0534 82.5255 10.6774 82.5255 11.9041C82.5255 13.3014 81.4428 14.0001 79.2775 14.0001H75.6455ZM78.6855 9.28007C79.1441 9.28007 79.4908 9.25874 79.7255 9.21607C79.9601 9.17341 80.1361 9.07741 80.2535 8.92807C80.3708 8.76807 80.4295 8.52274 80.4295 8.19207C80.4295 7.78674 80.3015 7.52541 80.0455 7.40807C79.7895 7.28007 79.3361 7.21607 78.6855 7.21607H77.1495V9.28007H78.6855ZM79.2775 12.8161C79.9068 12.8161 80.3548 12.7414 80.6215 12.5921C80.8881 12.4427 81.0215 12.1441 81.0215 11.6961C81.0215 11.2054 80.8881 10.8801 80.6215 10.7201C80.3548 10.5494 79.9068 10.4641 79.2775 10.4641H77.1495V12.8161H79.2775Z" fill="#3F8CD6"/>
<path d="M83.9817 9.90407C83.9817 9.07207 84.1471 8.35207 84.4777 7.74407C84.8084 7.13607 85.2671 6.67207 85.8537 6.35207C86.4511 6.03207 87.1337 5.87207 87.9017 5.87207C89.0644 5.87207 89.9924 6.21874 90.6857 6.91207C91.3791 7.59474 91.7257 8.53874 91.7257 9.74407V10.3201H85.4857C85.5177 11.0774 85.7417 11.6907 86.1577 12.1601C86.5844 12.6294 87.2351 12.8641 88.1097 12.8641C88.7284 12.8641 89.2351 12.7254 89.6297 12.4481C90.0351 12.1601 90.3071 11.7441 90.4457 11.2001H91.9977C91.9017 11.6694 91.7044 12.1281 91.4057 12.5761C91.1177 13.0241 90.6964 13.4027 90.1417 13.7121C89.5871 14.0107 88.9097 14.1601 88.1097 14.1601C87.1817 14.1601 86.4084 13.9734 85.7897 13.6001C85.1711 13.2161 84.7124 12.7041 84.4137 12.0641C84.1257 11.4134 83.9817 10.6934 83.9817 9.90407ZM90.2217 9.23207C90.2217 8.63474 90.0191 8.13874 89.6137 7.74407C89.2191 7.34941 88.6484 7.15207 87.9017 7.15207C87.1551 7.15207 86.5631 7.35474 86.1257 7.76007C85.6991 8.15474 85.4857 8.64541 85.4857 9.23207H90.2217Z" fill="#3F8CD6"/>
<path d="M99.5647 9.32807V6.03207H101.133V14.0001H99.5647V10.6721H95.2287V14.0001H93.6767V6.03207H95.2287V9.32807H99.5647Z" fill="#3F8CD6"/>
<path d="M109.283 9.32807V6.03207H110.851V14.0001H109.283V10.6721H104.947V14.0001H103.395V6.03207H104.947V9.32807H109.283Z" fill="#3F8CD6"/>
<path d="M116.218 8.19207C117.285 8.19207 118.133 8.41074 118.762 8.84807C119.402 9.28541 119.722 10.0374 119.722 11.1041C119.722 12.1707 119.402 12.9227 118.762 13.3601C118.133 13.7867 117.285 14.0001 116.218 14.0001H113.114V6.03207H114.666V8.19207H116.218ZM122.41 14.0001H120.858V6.03207H122.41V14.0001ZM116.058 12.6561C116.549 12.6561 116.938 12.6241 117.226 12.5601C117.525 12.4854 117.754 12.3361 117.914 12.1121C118.085 11.8881 118.17 11.5521 118.17 11.1041C118.17 10.6561 118.085 10.3201 117.914 10.0961C117.754 9.86141 117.525 9.71207 117.226 9.64807C116.938 9.57341 116.549 9.53607 116.058 9.53607H114.666V12.6561H116.058Z" fill="#3F8CD6"/>
<path d="M124.357 9.90407C124.357 9.07207 124.522 8.35207 124.853 7.74407C125.183 7.13607 125.642 6.67207 126.229 6.35207C126.826 6.03207 127.509 5.87207 128.277 5.87207C129.439 5.87207 130.367 6.21874 131.061 6.91207C131.754 7.59474 132.101 8.53874 132.101 9.74407V10.3201H125.861C125.893 11.0774 126.117 11.6907 126.533 12.1601C126.959 12.6294 127.61 12.8641 128.485 12.8641C129.103 12.8641 129.61 12.7254 130.005 12.4481C130.41 12.1601 130.682 11.7441 130.821 11.2001H132.373C132.277 11.6694 132.079 12.1281 131.781 12.5761C131.493 13.0241 131.071 13.4027 130.517 13.7121C129.962 14.0107 129.285 14.1601 128.485 14.1601C127.557 14.1601 126.783 13.9734 126.165 13.6001C125.546 13.2161 125.087 12.7041 124.789 12.0641C124.501 11.4134 124.357 10.6934 124.357 9.90407ZM130.597 9.23207C130.597 8.63474 130.394 8.13874 129.989 7.74407C129.594 7.34941 129.023 7.15207 128.277 7.15207C127.53 7.15207 126.938 7.35474 126.501 7.76007C126.074 8.15474 125.861 8.64541 125.861 9.23207H130.597Z" fill="#3F8CD6"/>
<path d="M21.1298 25.0321H22.6818V26.0561L22.4098 27.0641H22.8418C23.0338 26.4134 23.3965 25.8854 23.9298 25.4801C24.4632 25.0747 25.1672 24.8721 26.0418 24.8721C26.7992 24.8721 27.4605 25.0534 28.0258 25.4161C28.5912 25.7681 29.0232 26.2587 29.3218 26.8881C29.6312 27.5174 29.7858 28.2267 29.7858 29.0161C29.7858 29.8054 29.6312 30.5147 29.3218 31.1441C29.0232 31.7734 28.5912 32.2694 28.0258 32.6321C27.4605 32.9841 26.7992 33.1601 26.0418 33.1601C25.1672 33.1601 24.4632 32.9574 23.9298 32.5521C23.3965 32.1467 23.0338 31.6134 22.8418 30.9521H22.4098L22.6818 31.9761V35.9281H21.1298V25.0321ZM22.6818 29.0161C22.6818 29.9547 22.9378 30.6587 23.4498 31.1281C23.9725 31.5867 24.6605 31.8161 25.5138 31.8161C26.3458 31.8161 27.0072 31.5867 27.4978 31.1281C27.9885 30.6587 28.2338 29.9547 28.2338 29.0161C28.2338 28.0774 27.9885 27.3787 27.4978 26.9201C27.0072 26.4507 26.3458 26.2161 25.5138 26.2161C24.6605 26.2161 23.9725 26.4507 23.4498 26.9201C22.9378 27.3787 22.6818 28.0774 22.6818 29.0161Z" fill="#3F8CD6"/>
<path d="M31.4192 28.9041C31.4192 28.0721 31.5846 27.3521 31.9152 26.7441C32.2459 26.1361 32.7046 25.6721 33.2912 25.3521C33.8886 25.0321 34.5712 24.8721 35.3392 24.8721C36.5019 24.8721 37.4299 25.2187 38.1232 25.9121C38.8166 26.5947 39.1632 27.5387 39.1632 28.7441V29.3201H32.9232C32.9552 30.0774 33.1792 30.6907 33.5952 31.1601C34.0219 31.6294 34.6726 31.8641 35.5472 31.8641C36.1659 31.8641 36.6726 31.7254 37.0672 31.4481C37.4726 31.1601 37.7446 30.7441 37.8832 30.2001H39.4352C39.3392 30.6694 39.1419 31.1281 38.8432 31.5761C38.5552 32.0241 38.1339 32.4027 37.5792 32.7121C37.0246 33.0107 36.3472 33.1601 35.5472 33.1601C34.6192 33.1601 33.8459 32.9734 33.2272 32.6001C32.6086 32.2161 32.1499 31.7041 31.8512 31.0641C31.5632 30.4134 31.4192 29.6934 31.4192 28.9041ZM37.6592 28.2321C37.6592 27.6347 37.4566 27.1387 37.0512 26.7441C36.6566 26.3494 36.0859 26.1521 35.3392 26.1521C34.5926 26.1521 34.0006 26.3547 33.5632 26.7601C33.1366 27.1547 32.9232 27.6454 32.9232 28.2321H37.6592Z" fill="#3F8CD6"/>
<path d="M49.7222 31.6561V25.0321H51.2742V33.0001H41.1142V25.0321H42.6662V31.6561H45.4182V25.0321H46.9702V31.6561H49.7222Z" fill="#3F8CD6"/>
<path d="M53.2317 28.9041C53.2317 28.0721 53.3971 27.3521 53.7277 26.7441C54.0584 26.1361 54.5171 25.6721 55.1037 25.3521C55.7011 25.0321 56.3837 24.8721 57.1517 24.8721C58.3144 24.8721 59.2424 25.2187 59.9357 25.9121C60.6291 26.5947 60.9757 27.5387 60.9757 28.7441V29.3201H54.7357C54.7677 30.0774 54.9917 30.6907 55.4077 31.1601C55.8344 31.6294 56.4851 31.8641 57.3597 31.8641C57.9784 31.8641 58.4851 31.7254 58.8797 31.4481C59.2851 31.1601 59.5571 30.7441 59.6957 30.2001H61.2477C61.1517 30.6694 60.9544 31.1281 60.6557 31.5761C60.3677 32.0241 59.9464 32.4027 59.3917 32.7121C58.8371 33.0107 58.1597 33.1601 57.3597 33.1601C56.4317 33.1601 55.6584 32.9734 55.0397 32.6001C54.4211 32.2161 53.9624 31.7041 53.6637 31.0641C53.3757 30.4134 53.2317 29.6934 53.2317 28.9041ZM59.4717 28.2321C59.4717 27.6347 59.2691 27.1387 58.8637 26.7441C58.4691 26.3494 57.8984 26.1521 57.1517 26.1521C56.4051 26.1521 55.8131 26.3547 55.3757 26.7601C54.9491 27.1547 54.7357 27.6454 54.7357 28.2321H59.4717Z" fill="#3F8CD6"/>
<path d="M68.8147 28.3281V25.0321H70.3827V33.0001H68.8147V29.6721H64.4787V33.0001H62.9267V25.0321H64.4787V28.3281H68.8147Z" fill="#3F8CD6"/>
<path d="M80.6455 25.0321V33.0001H79.0775V26.3281L79.3495 25.4481H78.9175L75.7495 33.0001H72.6455V25.0321H74.1975V31.6721L73.9255 32.5681H74.3575L77.5255 25.0321H80.6455Z" fill="#3F8CD6"/>
<path d="M88.295 25.0321V33.0001H86.743V29.5921H85.831L84.199 32.3281C83.911 32.7761 83.495 33.0001 82.951 33.0001H81.783V31.7041H83.047L84.327 29.5281C83.655 29.4214 83.143 29.1974 82.791 28.8561C82.4496 28.5147 82.279 27.9974 82.279 27.3041C82.279 25.7894 83.3243 25.0321 85.415 25.0321H88.295ZM86.743 28.4081V26.2161H85.623C84.9936 26.2161 84.535 26.2961 84.247 26.4561C83.9696 26.6054 83.831 26.8881 83.831 27.3041C83.831 27.7307 83.9696 28.0241 84.247 28.1841C84.535 28.3334 84.9936 28.4081 85.623 28.4081H86.743Z" fill="#3F8CD6"/>
</svg>
