<svg width="261" height="173" viewBox="0 0 261 173" fill="none" xmlns="http://www.w3.org/2000/svg">
<path d="M0.653748 95.1548L5.62975 80.8188L6.79775 81.2508L1.82175 95.5868L0.653748 95.1548Z" fill="#3F8CD6"/>
<path d="M8.7475 95.1548L13.7235 80.8188L14.8915 81.2508L9.9155 95.5868L8.7475 95.1548Z" fill="#3F8CD6"/>
<path d="M28.0299 89.1708V85.8748H29.5979V93.8428H28.0299V90.5148H23.6939V93.8428H22.1419V85.8748H23.6939V89.1708H28.0299Z" fill="#3F8CD6"/>
<path d="M31.5406 91.6348C31.5406 90.2695 32.4473 89.4802 34.2606 89.2668L37.3166 88.9468C37.2846 88.2962 37.0873 87.8108 36.7246 87.4908C36.362 87.1602 35.85 86.9948 35.1886 86.9948C34.5806 86.9948 34.0793 87.1495 33.6846 87.4588C33.29 87.7575 33.0926 88.2215 33.0926 88.8508H31.5886C31.5886 88.2748 31.7326 87.7468 32.0206 87.2668C32.3086 86.7868 32.7246 86.4082 33.2686 86.1308C33.8126 85.8535 34.4526 85.7148 35.1886 85.7148C36.3086 85.7148 37.1993 86.0402 37.8606 86.6908C38.5326 87.3415 38.8686 88.2215 38.8686 89.3308V92.4988H40.0366V93.8428H38.5486C38.2393 93.8428 37.994 93.7575 37.8126 93.5868C37.642 93.4162 37.5566 93.1708 37.5566 92.8508V92.4828L37.7966 91.6348H37.3806C37.21 92.3388 36.874 92.9095 36.3726 93.3468C35.8713 93.7842 35.162 94.0028 34.2446 94.0028C33.21 94.0028 32.5006 93.7575 32.1166 93.2668C31.7326 92.7762 31.5406 92.2322 31.5406 91.6348ZM33.0926 91.4108C33.0926 91.8162 33.2153 92.1255 33.4606 92.3388C33.7166 92.5522 34.0526 92.6588 34.4686 92.6588C35.034 92.6588 35.53 92.5468 35.9566 92.3228C36.394 92.0988 36.73 91.7895 36.9646 91.3948C37.1993 90.9895 37.3166 90.5362 37.3166 90.0348L34.5326 90.3228C34.0313 90.3762 33.6633 90.4828 33.4286 90.6428C33.2046 90.8028 33.0926 91.0588 33.0926 91.4108Z" fill="#3F8CD6"/>
<path d="M50.1572 92.4988V95.9708H48.6052V93.8428H42.7332V95.9708H41.1812V92.4988H42.2372C42.6639 91.6988 42.9679 90.7922 43.1492 89.7788C43.3306 88.7548 43.4212 87.4535 43.4212 85.8748H49.1012V92.4988H50.1572ZM47.5492 92.4988V87.2188H44.9572C44.9039 88.4028 44.7866 89.4108 44.6052 90.2428C44.4239 91.0642 44.1519 91.8162 43.7892 92.4988H47.5492Z" fill="#3F8CD6"/>
<path d="M51.3062 89.7468C51.3062 88.9148 51.4716 88.1948 51.8022 87.5868C52.1329 86.9788 52.5916 86.5148 53.1782 86.1948C53.7756 85.8748 54.4582 85.7148 55.2262 85.7148C56.3889 85.7148 57.3169 86.0615 58.0102 86.7548C58.7036 87.4375 59.0502 88.3815 59.0502 89.5868V90.1628H52.8102C52.8423 90.9202 53.0662 91.5335 53.4822 92.0028C53.9089 92.4722 54.5596 92.7068 55.4342 92.7068C56.0529 92.7068 56.5596 92.5682 56.9542 92.2908C57.3596 92.0028 57.6316 91.5868 57.7702 91.0428H59.3222C59.2262 91.5122 59.0289 91.9708 58.7302 92.4188C58.4422 92.8668 58.0209 93.2455 57.4662 93.5548C56.9116 93.8535 56.2342 94.0028 55.4342 94.0028C54.5062 94.0028 53.7329 93.8162 53.1142 93.4428C52.4956 93.0588 52.0369 92.5468 51.7382 91.9068C51.4502 91.2562 51.3062 90.5362 51.3062 89.7468ZM57.5462 89.0748C57.5462 88.4775 57.3436 87.9815 56.9382 87.5868C56.5436 87.1922 55.9729 86.9948 55.2262 86.9948C54.4796 86.9948 53.8876 87.1975 53.4502 87.6028C53.0236 87.9975 52.8102 88.4882 52.8102 89.0748H57.5462Z" fill="#3F8CD6"/>
<path d="M72.0316 87.2188H70.7356L68.8796 89.6988L72.0316 93.8428H70.2556L67.6796 90.4988C67.637 90.5095 67.5623 90.5148 67.4556 90.5148H66.8476V93.8428H65.2796V90.5148H64.6716C64.565 90.5148 64.4903 90.5095 64.4476 90.4988L61.8716 93.8428H60.0956L63.2476 89.6988L61.3916 87.2188H60.0956V85.8748H61.3756C61.653 85.8748 61.893 85.9228 62.0956 86.0188C62.309 86.1148 62.4956 86.2642 62.6556 86.4668L64.6236 89.1388H65.2796V85.8748H66.8476V89.1388H67.5036L69.4716 86.4668C69.6316 86.2642 69.813 86.1148 70.0156 86.0188C70.229 85.9228 70.4743 85.8748 70.7516 85.8748H72.0316V87.2188Z" fill="#3F8CD6"/>
<path d="M79.5455 89.1708V85.8748H81.1135V93.8428H79.5455V90.5148H75.2095V93.8428H73.6575V85.8748H75.2095V89.1708H79.5455Z" fill="#3F8CD6"/>
<path d="M86.4802 88.0348C87.5469 88.0348 88.3949 88.2535 89.0242 88.6908C89.6642 89.1282 89.9842 89.8802 89.9842 90.9468C89.9842 92.0135 89.6642 92.7655 89.0242 93.2028C88.3949 93.6295 87.5469 93.8428 86.4802 93.8428H83.3763V85.8748H84.9282V88.0348H86.4802ZM92.6722 93.8428H91.1202V85.8748H92.6722V93.8428ZM86.3203 92.4988C86.8109 92.4988 87.2002 92.4668 87.4883 92.4028C87.7869 92.3282 88.0162 92.1788 88.1762 91.9548C88.3469 91.7308 88.4323 91.3948 88.4323 90.9468C88.4323 90.4988 88.3469 90.1628 88.1762 89.9388C88.0162 89.7042 87.7869 89.5548 87.4883 89.4908C87.2002 89.4162 86.8109 89.3788 86.3203 89.3788H84.9282V92.4988H86.3203Z" fill="#3F8CD6"/>
<path d="M94.6187 89.7468C94.6187 88.9148 94.7841 88.1948 95.1147 87.5868C95.4454 86.9788 95.9041 86.5148 96.4907 86.1948C97.0881 85.8748 97.7708 85.7148 98.5387 85.7148C99.7014 85.7148 100.629 86.0615 101.323 86.7548C102.016 87.4375 102.363 88.3815 102.363 89.5868V90.1628H96.1227C96.1547 90.9202 96.3787 91.5335 96.7947 92.0028C97.2214 92.4722 97.8721 92.7068 98.7467 92.7068C99.3654 92.7068 99.8721 92.5682 100.267 92.2908C100.672 92.0028 100.944 91.5868 101.083 91.0428H102.635C102.539 91.5122 102.341 91.9708 102.043 92.4188C101.755 92.8668 101.333 93.2455 100.779 93.5548C100.224 93.8535 99.5468 94.0028 98.7467 94.0028C97.8187 94.0028 97.0454 93.8162 96.4268 93.4428C95.8081 93.0588 95.3494 92.5468 95.0508 91.9068C94.7627 91.2562 94.6187 90.5362 94.6187 89.7468ZM100.859 89.0748C100.859 88.4775 100.656 87.9815 100.251 87.5868C99.8561 87.1922 99.2854 86.9948 98.5387 86.9948C97.7921 86.9948 97.2001 87.1975 96.7627 87.6028C96.3361 87.9975 96.1227 88.4882 96.1227 89.0748H100.859Z" fill="#3F8CD6"/>
<path d="M28.4642 104.875V106.219H25.4562V112.843H23.9042V106.219H20.8962V104.875H28.4642Z" fill="#3F8CD6"/>
<path d="M28.9781 108.747C28.9781 107.915 29.1435 107.195 29.4741 106.587C29.8048 105.979 30.2635 105.515 30.8501 105.195C31.4475 104.875 32.1301 104.715 32.8981 104.715C34.0608 104.715 34.9888 105.062 35.6821 105.755C36.3755 106.438 36.7221 107.382 36.7221 108.587V109.163H30.4821C30.5141 109.92 30.7381 110.534 31.1541 111.003C31.5808 111.472 32.2315 111.707 33.1061 111.707C33.7248 111.707 34.2315 111.568 34.6261 111.291C35.0315 111.003 35.3035 110.587 35.4421 110.043H36.9941C36.8981 110.512 36.7008 110.971 36.4021 111.419C36.1141 111.867 35.6928 112.246 35.1381 112.555C34.5835 112.854 33.9061 113.003 33.1061 113.003C32.1781 113.003 31.4048 112.816 30.7861 112.443C30.1675 112.059 29.7088 111.547 29.4101 110.907C29.1221 110.256 28.9781 109.536 28.9781 108.747ZM35.2181 108.075C35.2181 107.478 35.0155 106.982 34.6101 106.587C34.2155 106.192 33.6448 105.995 32.8981 105.995C32.1515 105.995 31.5595 106.198 31.1221 106.603C30.6955 106.998 30.4821 107.488 30.4821 108.075H35.2181Z" fill="#3F8CD6"/>
<path d="M39.3456 112.843H37.5056L40.5136 109.067V108.635L37.5056 104.875H39.3456L41.6496 107.947L43.9696 104.875H45.8096L42.8016 108.635V109.067L45.8096 112.843H43.9696L41.6496 109.755L39.3456 112.843Z" fill="#3F8CD6"/>
<path d="M53.3267 108.171V104.875H54.8947V112.843H53.3267V109.515H48.9907V112.843H47.4387V104.875H48.9907V108.171H53.3267Z" fill="#3F8CD6"/>
<path d="M56.6812 108.843C56.6812 108.054 56.8572 107.344 57.2092 106.715C57.5719 106.086 58.0786 105.595 58.7292 105.243C59.3799 104.891 60.1212 104.715 60.9532 104.715C61.7852 104.715 62.5212 104.891 63.1612 105.243C63.8119 105.595 64.3132 106.086 64.6652 106.715C65.0279 107.344 65.2093 108.054 65.2093 108.843C65.2093 109.643 65.0279 110.363 64.6652 111.003C64.3132 111.632 63.8119 112.123 63.1612 112.475C62.5212 112.827 61.7852 113.003 60.9532 113.003C60.1212 113.003 59.3799 112.827 58.7292 112.475C58.0786 112.123 57.5719 111.632 57.2092 111.003C56.8572 110.363 56.6812 109.643 56.6812 108.843ZM58.2332 108.843C58.2332 109.675 58.4732 110.352 58.9532 110.875C59.4332 111.398 60.0999 111.659 60.9532 111.659C61.7959 111.659 62.4519 111.398 62.9212 110.875C63.4012 110.352 63.6412 109.675 63.6412 108.843C63.6412 108.022 63.4012 107.355 62.9212 106.843C62.4519 106.32 61.7959 106.059 60.9532 106.059C60.0999 106.059 59.4332 106.32 58.9532 106.843C58.4732 107.355 58.2332 108.022 58.2332 108.843Z" fill="#3F8CD6"/>
<path d="M73.3568 112.843H71.7887V106.219H68.9567C68.9461 107.819 68.8714 109.078 68.7327 109.995C68.5941 110.902 68.3007 111.606 67.8527 112.107C67.4154 112.598 66.7541 112.843 65.8687 112.843V111.499C66.3487 111.499 66.6954 111.27 66.9087 110.811C67.1327 110.352 67.2714 109.696 67.3247 108.843C67.3781 107.99 67.4047 106.667 67.4047 104.875H73.3568V112.843Z" fill="#3F8CD6"/>
<path d="M75.2906 108.843C75.2906 108.054 75.4666 107.344 75.8186 106.715C76.1813 106.086 76.688 105.595 77.3386 105.243C77.9893 104.891 78.7306 104.715 79.5626 104.715C80.3946 104.715 81.1306 104.891 81.7706 105.243C82.4213 105.595 82.9226 106.086 83.2746 106.715C83.6373 107.344 83.8186 108.054 83.8186 108.843C83.8186 109.643 83.6373 110.363 83.2746 111.003C82.9226 111.632 82.4213 112.123 81.7706 112.475C81.1306 112.827 80.3946 113.003 79.5626 113.003C78.7306 113.003 77.9893 112.827 77.3386 112.475C76.688 112.123 76.1813 111.632 75.8186 111.003C75.4666 110.363 75.2906 109.643 75.2906 108.843ZM76.8426 108.843C76.8426 109.675 77.0826 110.352 77.5626 110.875C78.0426 111.398 78.7093 111.659 79.5626 111.659C80.4053 111.659 81.0613 111.398 81.5306 110.875C82.0106 110.352 82.2506 109.675 82.2506 108.843C82.2506 108.022 82.0106 107.355 81.5306 106.843C81.0613 106.32 80.4053 106.059 79.5626 106.059C78.7093 106.059 78.0426 106.32 77.5626 106.843C77.0826 107.355 76.8426 108.022 76.8426 108.843Z" fill="#3F8CD6"/>
<path d="M87.0376 112.843H85.4856V104.875H91.2776V106.219H87.0376V112.843Z" fill="#3F8CD6"/>
<path d="M100.704 104.875V112.843H99.1364V106.171L99.4084 105.291H98.9764L95.8084 112.843H92.7044V104.875H94.2564V111.515L93.9844 112.411H94.4164L97.5844 104.875H100.704Z" fill="#3F8CD6"/>
<path d="M110.642 104.875V112.843H109.074V106.171L109.346 105.291H108.914L105.746 112.843H102.642V104.875H104.194V111.515L103.922 112.411H104.354L107.522 104.875H110.642Z" fill="#3F8CD6"/>
<path d="M115.879 88.705C135.336 73.7791 158.398 59.3285 184.205 60.5652C208.636 61.7359 194.036 110.239 170.928 104.248C155.115 100.148 188.752 82.0194 196.255 82.1064C213.362 82.3047 222.352 98.2605 224.609 112.703" stroke="#3F8CD6" stroke-width="2" stroke-linecap="round"/>
<path d="M231.862 98.2316C231.208 98.8354 230.829 99.8916 230.474 100.643C228.909 103.952 227.398 107.288 225.944 110.646C225.63 111.371 225.328 112.1 225.029 112.831C224.951 113.022 224.921 113.886 224.615 113.557C223.847 112.732 223.314 111.716 222.705 110.779C221.088 108.29 219.055 106.201 217.028 104.089" stroke="#3F8CD6" stroke-width="2" stroke-linecap="round"/>
</svg>
