<svg width="55" height="55" viewBox="0 0 55 55" fill="none" xmlns="http://www.w3.org/2000/svg">
<g clip-path="url(#clip0_574_6984)">
<path fill-rule="evenodd" clip-rule="evenodd" d="M26.8953 53.8757L14.679 49.4926V31.5918L26.8953 35.7524V53.8757ZM29.1211 53.8757L41.3375 49.4926V31.5918L29.1211 35.7558V53.8757ZM15.9375 30.2478L28.2651 26.767L39.7297 30.4652L28.2651 34.357L15.9375 30.2478ZM12.3556 28.8781L0.134155 24.4812V6.55483L12.3505 10.7154L12.3556 28.8781ZM14.5934 28.8781L26.8097 24.4949V6.55483L14.59 10.7359L14.5934 28.8781ZM1.40972 5.25015L13.7373 1.7522L25.202 5.45048L13.7373 9.34223L1.40972 5.25015ZM40.8786 28.8781L28.6623 24.4949V6.55483L40.8786 10.7154V28.8781ZM43.1044 28.8781L55.3207 24.4949V6.55483L43.1044 10.7154V28.8781ZM29.9207 5.25015L42.2483 1.76932L53.713 5.4676L42.2483 9.35936L29.9207 5.25015Z" fill="#FF9900"/>
</g>
<defs>
<clipPath id="clip0_574_6984">
<rect width="54.7893" height="54.7893" fill="white" transform="translate(0.133972 0.134033)"/>
</clipPath>
</defs>
</svg>
