<svg width="57" height="65" viewBox="0 0 57 65" fill="none" xmlns="http://www.w3.org/2000/svg">
<g clip-path="url(#clip0_574_6881)">
<path d="M56.6021 19.484C56.6017 18.4211 56.3744 17.4819 55.9146 16.6759C55.4631 15.8832 54.7869 15.2189 53.8798 14.6936C46.3923 10.3763 38.8976 6.07219 31.4126 1.75048C29.3947 0.585499 27.4381 0.62797 25.4352 1.80968C22.455 3.56727 7.53397 12.1158 3.08771 14.6912C1.25662 15.7512 0.365606 17.3734 0.365165 19.482C0.362305 28.1644 0.365165 36.8465 0.362305 45.5291C0.362745 46.5687 0.580381 47.4896 1.01984 48.2836C1.47161 49.1002 2.15731 49.7828 3.08529 50.32C7.53177 52.8953 22.4547 61.4432 25.4343 63.2012C27.4381 64.3836 29.3947 64.4259 31.4133 63.2604C38.8985 58.9385 46.3937 54.6346 53.8822 50.3173C54.8102 49.7804 55.4959 49.0973 55.9477 48.2814C56.3865 47.4874 56.6045 46.5665 56.605 45.5267C56.605 45.5267 56.605 28.1666 56.6021 19.484Z" fill="#5C8DBC"/>
<path d="M28.5696 32.4209L1.01975 48.2835C1.47153 49.1001 2.15722 49.7828 3.08521 50.3199C7.53168 52.8952 22.4546 61.4431 25.4342 63.2012C27.4381 64.3835 29.3946 64.4258 31.4132 63.2604C38.8984 58.9385 46.3936 54.6346 53.8821 50.3173C54.8101 49.7803 55.4958 49.0973 55.9476 48.2813L28.5696 32.4209Z" fill="#1A4674"/>
<path d="M20.4094 37.1196C22.0125 39.9182 25.0262 41.8059 28.4833 41.8059C31.9617 41.8059 34.9926 39.8943 36.5875 37.0656L28.5693 32.4209L20.4094 37.1196Z" fill="#1A4674"/>
<path d="M56.6018 19.4839C56.6013 18.4211 56.374 17.4819 55.9143 16.6758L28.5693 32.4209L55.9473 48.2813C56.3861 47.4873 56.6042 46.5664 56.6046 45.5266C56.6046 45.5266 56.6046 28.1665 56.6018 19.4839Z" fill="#1B598E"/>
<path d="M55.0961 33.5547H52.9567V35.6945H50.8169V33.5547H48.6777V31.4155H50.8169V29.2761H52.9567V31.4155H55.0961V33.5547Z" fill="white"/>
<path d="M47.29 33.5547H45.1509V35.6945H43.0115V33.5547H40.8721V31.4155H43.0115V29.2761H45.1509V31.4155H47.29V33.5547Z" fill="white"/>
<path d="M36.5873 37.0658C34.9923 39.8944 31.9615 41.806 28.483 41.806C25.0259 41.806 22.0122 39.9184 20.4091 37.1197C19.6303 35.7597 19.1825 34.1852 19.1825 32.5055C19.1825 27.3692 23.3467 23.2052 28.483 23.2052C31.9179 23.2052 34.9157 25.0693 36.5268 27.8394L44.6559 23.1584C41.4248 17.5808 35.3924 13.8284 28.483 13.8284C18.1676 13.8284 9.80566 22.1905 9.80566 32.5055C9.80566 35.8895 10.7059 39.063 12.2793 41.8003C15.5023 47.4073 21.5519 51.1829 28.483 51.1829C35.4269 51.1829 41.486 47.3922 44.7043 41.7686L36.5873 37.0658Z" fill="white"/>
</g>
<defs>
<clipPath id="clip0_574_6881">
<rect width="56.3346" height="63.3765" fill="white" transform="translate(0.361328 0.840576)"/>
</clipPath>
</defs>
</svg>
