<svg width="61" height="41" viewBox="0 0 61 41" fill="none" xmlns="http://www.w3.org/2000/svg">
<g clip-path="url(#clip0_574_6894)">
<path d="M146.576 33.882C146.702 33.857 146.777 33.7571 146.777 33.6322C146.777 33.5323 146.752 33.4574 146.676 33.4075C146.576 33.3575 146.451 33.3325 146.325 33.3325C146.2 33.3325 146.049 33.3325 145.924 33.3575V34.3816H146.149V33.9819H146.25C146.375 33.9819 146.451 34.0319 146.476 34.1318C146.501 34.2067 146.526 34.3066 146.551 34.3816H146.802C146.752 34.3066 146.727 34.2067 146.727 34.1318C146.752 34.0319 146.676 33.932 146.576 33.882ZM146.275 33.8071H146.149V33.5074H146.275C146.425 33.5074 146.501 33.5823 146.501 33.6572C146.526 33.7571 146.4 33.8321 146.275 33.8071ZM54.8231 15.5988C54.6725 15.4739 53.3173 14.4499 50.4061 14.4499C49.6532 14.4499 48.8752 14.5248 48.1223 14.6497C47.5702 10.8282 44.3829 8.97991 44.2574 8.88L43.4794 8.43042L42.9775 9.15475C42.3501 10.1289 41.8732 11.2278 41.5972 12.3518C41.0701 14.5248 41.3964 16.5729 42.5007 18.3213C41.1705 19.0706 39.0122 19.2455 38.5605 19.2705L2.92339 19.2705C1.99482 19.2705 1.24192 20.0198 1.24192 20.9439C1.19173 24.0411 1.71876 27.1382 2.79791 30.0605C4.02764 33.2576 5.85969 35.6304 8.21876 37.0791C10.879 38.7026 15.2207 39.6267 20.1145 39.6267C22.323 39.6267 24.5315 39.4269 26.7149 39.0273C29.7516 38.4778 32.6628 37.4288 35.3481 35.9052C37.5566 34.6313 39.5393 33.0078 41.2207 31.1096C44.0566 27.9375 45.7381 24.3907 46.9678 21.2436H47.4698C50.5566 21.2436 52.464 20.0198 53.518 18.9707C54.2207 18.3213 54.7478 17.5221 55.1242 16.6229L55.3501 15.9735L54.8231 15.5988Z" fill="#0091E2"/>
<path d="M6.2364 18.2467H11.0047C11.2306 18.2467 11.4314 18.0718 11.4314 17.8221V13.576C11.4314 13.3512 11.2557 13.1514 11.0047 13.1514H6.2364C6.01053 13.1514 5.80975 13.3262 5.80975 13.576V17.8221C5.83485 18.0718 6.01053 18.2467 6.2364 18.2467ZM12.8117 18.2467H17.58C17.8059 18.2467 18.0067 18.0718 18.0067 17.8221V13.576C18.0067 13.3512 17.831 13.1514 17.58 13.1514L12.8117 13.1514C12.5858 13.1514 12.3851 13.3262 12.3851 13.576V17.8221C12.4102 18.0718 12.5858 18.2467 12.8117 18.2467ZM19.5125 18.2467L24.2808 18.2467C24.5067 18.2467 24.7075 18.0718 24.7075 17.8221L24.7075 13.576C24.7075 13.3512 24.5318 13.1514 24.2808 13.1514H19.5125C19.2866 13.1514 19.0858 13.3262 19.0858 13.576V17.8221C19.0858 18.0718 19.2615 18.2467 19.5125 18.2467ZM26.1129 18.2467H30.8812C31.1071 18.2467 31.3079 18.0718 31.3079 17.8221L31.3079 13.576C31.3079 13.3512 31.1322 13.1514 30.8812 13.1514L26.1129 13.1514C25.887 13.1514 25.6862 13.3262 25.6862 13.576L25.6862 17.8221C25.6862 18.0718 25.887 18.2467 26.1129 18.2467ZM12.8117 12.1773L17.58 12.1773C17.8059 12.1773 18.0067 11.9774 18.0067 11.7527V7.50656C18.0067 7.28177 17.831 7.08195 17.58 7.08195L12.8117 7.08195C12.5858 7.08195 12.3851 7.25679 12.3851 7.50656V11.7527C12.4102 11.9774 12.5858 12.1773 12.8117 12.1773ZM19.5125 12.1773H24.2808C24.5067 12.1773 24.7075 11.9774 24.7075 11.7527V7.50656C24.7075 7.28177 24.5318 7.08195 24.2808 7.08195L19.5125 7.08195C19.2866 7.08195 19.0858 7.25679 19.0858 7.50656V11.7527C19.0858 11.9774 19.2615 12.1773 19.5125 12.1773ZM26.1129 12.1773L30.8812 12.1773C31.1071 12.1773 31.3079 11.9774 31.3079 11.7527V7.50656C31.3079 7.28177 31.1071 7.08195 30.8812 7.08195H26.1129C25.887 7.08195 25.6862 7.25679 25.6862 7.50656V11.7527C25.6862 11.9774 25.887 12.1773 26.1129 12.1773ZM26.1129 6.08286H30.8812C31.1071 6.08286 31.3079 5.90803 31.3079 5.65826V1.41216C31.3079 1.18737 31.1071 0.987549 30.8812 0.987549L26.1129 0.987549C25.887 0.987549 25.6862 1.16239 25.6862 1.41216V5.65826C25.6862 5.88305 25.887 6.08286 26.1129 6.08286ZM32.7635 18.2467H37.5318C37.7577 18.2467 37.9585 18.0718 37.9585 17.8221V13.576C37.9585 13.3512 37.7828 13.1514 37.5318 13.1514H32.7635C32.5376 13.1514 32.3368 13.3262 32.3368 13.576V17.8221C32.3619 18.0718 32.5376 18.2467 32.7635 18.2467Z" fill="#0091E2"/>
</g>
<defs>
<clipPath id="clip0_574_6894">
<rect width="59.9966" height="39.2835" fill="white" transform="translate(60.6797 40.1704) rotate(180)"/>
</clipPath>
</defs>
</svg>
