<svg width="83" height="31" viewBox="0 0 83 31" fill="none" xmlns="http://www.w3.org/2000/svg">
<path d="M6.52192 9.45322C6.36133 9.45322 6.32118 9.37292 6.40148 9.25248L7.24456 8.16851C7.32486 8.04807 7.52559 7.96777 7.68618 7.96777H22.0187C22.1793 7.96777 22.2194 8.08821 22.1392 8.20866L21.4567 9.25248C21.3764 9.37292 21.1756 9.49336 21.0552 9.49336L6.52192 9.45322Z" fill="#00ACD7"/>
<path d="M0.455511 13.1473C0.294922 13.1473 0.254775 13.067 0.335069 12.9466L1.17816 11.8626C1.25845 11.7422 1.45919 11.6619 1.61978 11.6619H19.9269C20.0875 11.6619 20.1678 11.7823 20.1276 11.9027L19.8064 12.8663C19.7663 13.0269 19.6057 13.1072 19.4451 13.1072L0.455511 13.1473Z" fill="#00ACD7"/>
<path d="M10.1723 16.8399C10.0117 16.8399 9.97157 16.7195 10.0519 16.5991L10.6139 15.5954C10.6942 15.4749 10.8548 15.3545 11.0154 15.3545H19.0448C19.2054 15.3545 19.2857 15.4749 19.2857 15.6355L19.2054 16.5991C19.2054 16.7596 19.0448 16.8801 18.9244 16.8801L10.1723 16.8399Z" fill="#00ACD7"/>
<path d="M51.8484 8.73052C49.3191 9.37287 47.5928 9.85463 45.1037 10.497C44.5015 10.6576 44.4613 10.6977 43.9394 10.0955C43.3372 9.41302 42.8956 8.9714 42.0525 8.56993C39.5232 7.32537 37.0743 7.68669 34.7859 9.17213C32.0559 10.9386 30.6507 13.5482 30.6909 16.8001C30.731 20.0119 32.9391 22.6616 36.1107 23.1032C38.8407 23.4645 41.1291 22.501 42.9357 20.4535C43.2971 20.0119 43.6183 19.5301 44.0197 18.968H36.2713C35.4282 18.968 35.2275 18.4461 35.5085 17.7636C36.0304 16.5191 36.994 14.4314 37.556 13.3876C37.6765 13.1467 37.9575 12.7452 38.5597 12.7452H53.1733C53.093 13.8292 53.093 14.9132 52.9324 15.9971C52.4908 18.8877 51.4068 21.5375 49.6403 23.866C46.7497 27.68 42.9759 30.0486 38.1984 30.691C34.264 31.2129 30.6106 30.4501 27.3988 28.0413C24.4279 25.793 22.7417 22.8222 22.3001 19.1286C21.7782 14.7526 23.0629 10.8182 25.7126 7.36551C28.5631 3.63183 32.3369 1.26315 36.9538 0.420055C40.7277 -0.262446 44.3409 0.179173 47.5928 2.38727C49.7206 3.79242 51.2462 5.71948 52.2499 8.04801C52.4908 8.40934 52.3302 8.61007 51.8484 8.73052Z" fill="#00ACD7"/>
<path d="M65.1388 30.932C61.4854 30.8517 58.1532 29.8078 55.3429 27.399C52.9742 25.3515 51.4888 22.7419 51.007 19.6506C50.2843 15.114 51.5289 11.0993 54.2589 7.52617C57.1897 3.67205 60.7226 1.66469 65.5001 0.821597C69.5951 0.0989485 73.4493 0.500419 76.9421 2.8691C80.1137 5.03705 82.0809 7.96779 82.6028 11.8219C83.2853 17.2418 81.7196 21.658 77.9859 25.4318C75.3362 28.1217 72.0842 29.8078 68.3506 30.5706C67.2666 30.7714 66.1826 30.8115 65.1388 30.932ZM74.6938 14.7125C74.6537 14.1906 74.6537 13.7891 74.5734 13.3877C73.8507 9.41309 70.1973 7.16485 66.3834 8.04808C62.6497 8.89117 60.2408 11.2599 59.3576 15.0337C58.635 18.1652 60.1605 21.3368 63.0511 22.6215C65.2592 23.585 67.4673 23.4646 69.5951 22.3806C72.7667 20.7346 74.4931 18.1652 74.6938 14.7125Z" fill="#00ACD7"/>
</svg>
