<svg width="55" height="95" viewBox="0 0 55 95" fill="none" xmlns="http://www.w3.org/2000/svg">
<path d="M18.994 50.7365C18.994 50.7365 16.7566 52.0982 20.551 52.4877C25.1334 53.0715 27.5561 52.9739 32.6147 52.0016C32.6147 52.0016 33.9764 52.8782 35.8253 53.5586C24.4411 58.4229 10.0424 53.2667 18.994 50.7365ZM17.5346 44.4128C17.5346 44.4128 15.102 46.2617 18.8964 46.6502C23.8573 47.1363 27.7504 47.2339 34.4635 45.8731C34.4635 45.8731 35.3402 46.8464 36.7986 47.3325C23.0813 51.4188 7.70841 47.721 17.5346 44.4138V44.4128ZM44.3874 55.5041C44.3874 55.5041 46.041 56.8659 42.5385 57.9368C36.0196 59.8823 15.1996 60.467 9.36205 57.9368C7.31991 57.0601 11.2109 55.795 12.4751 55.6017C13.7402 55.3099 14.4206 55.3099 14.4206 55.3099C12.1832 53.7529 -0.465162 58.5205 7.99929 59.8922C31.2519 63.6877 50.4192 58.2386 44.3864 55.5141L44.3874 55.5041ZM20.0639 37.7962C20.0639 37.7962 9.45868 40.3265 16.2685 41.2011C19.1873 41.5896 24.9272 41.493 30.2786 41.1035C34.6568 40.715 39.0449 39.936 39.0449 39.936C39.0449 39.936 37.4879 40.6174 36.418 41.2977C25.6096 44.1219 4.88626 42.8567 10.8214 39.938C15.882 37.5053 20.0639 37.7962 20.0639 37.7962ZM39.035 48.4014C49.9331 42.7581 44.8725 37.3101 41.37 37.9914C40.4934 38.1857 40.1049 38.38 40.1049 38.38C40.1049 38.38 40.3967 37.7962 41.0781 37.6029C47.9856 35.1703 53.4346 44.8999 38.8407 48.6943C38.8407 48.6943 38.9383 48.5967 39.035 48.4024V48.4014ZM21.1338 63.7723C31.6414 64.4537 47.6947 63.3838 48.0842 58.4209C48.0842 58.4209 47.3072 60.3664 39.4255 61.8258C30.4749 63.4795 19.3825 63.2852 12.8646 62.2143C12.8646 62.2143 14.2264 63.3818 21.1348 63.7713L21.1338 63.7723Z" fill="#4E7896"/>
<path d="M32.4099 5.68945C32.4099 5.68945 38.4417 11.8189 26.6699 21.0604C17.2322 28.5516 24.5282 32.8331 26.6699 37.6964C21.1243 32.7355 17.1366 28.3563 19.8591 24.27C23.8577 18.2412 34.8505 15.3224 32.4099 5.68945ZM29.2968 33.6121C32.118 36.8228 28.5198 39.7415 28.5198 39.7415C28.5198 39.7415 35.7191 36.0457 32.4119 31.4713C29.3955 27.0932 27.0604 24.9524 39.7088 17.6545C39.7088 17.6545 19.7635 22.6154 29.2988 33.6101L29.2968 33.6121Z" fill="#F58219"/>
<path d="M24.2759 84.601V75.0677C24.2759 72.635 22.9142 70.9814 19.5083 70.9814C17.5627 70.9814 15.9081 71.4675 14.4477 72.0513L14.9339 73.8026C16.0037 73.4141 17.3665 73.0255 18.8259 73.0255C20.6748 73.0255 21.5504 73.8026 21.5504 75.3606V76.6257H20.5772C15.9071 76.6257 13.7663 78.377 13.7663 81.2081C13.7663 83.5431 15.2257 84.9039 17.8526 84.9039C19.5063 84.9039 20.7714 84.1269 21.9389 83.1526L22.1332 84.612H24.2749L24.2759 84.601ZM21.5514 81.488C20.5782 82.3646 19.5093 82.8498 18.535 82.8498C17.2699 82.8498 16.4929 82.0728 16.4929 80.708C16.4929 79.3433 17.2699 78.373 20.3849 78.373H21.5514V81.486V81.488ZM33.4208 84.601H30.0159L25.9296 71.2723H28.8484L31.3786 79.4449L31.9624 81.8775C33.2275 78.375 34.1998 74.7748 34.5893 71.2723H37.5081C36.7311 75.6505 35.3663 80.4171 33.4218 84.601H33.4208ZM49.1822 84.601V75.0677C49.1822 72.635 47.8204 70.9814 44.4145 70.9814C42.469 70.9814 40.8144 71.4675 39.354 72.0513L39.7425 73.8026C40.91 73.4141 42.2727 73.0255 43.7311 73.0255C45.58 73.0255 46.4557 73.8026 46.4557 75.3606V76.6257H45.4824C40.8124 76.6257 38.6716 78.377 38.6716 81.2081C38.6716 83.5431 40.0334 84.9039 42.6603 84.9039C44.4115 84.9039 45.6767 84.1269 46.8442 83.1526L47.0384 84.612H49.1802L49.1822 84.601ZM46.4577 81.488C45.4844 82.3646 44.4155 82.8498 43.4412 82.8498C42.1761 82.8498 41.3991 82.0728 41.3991 80.708C41.3991 79.3433 42.1761 78.373 45.2911 78.373H46.4586V81.486L46.4577 81.488ZM10.7529 86.8374C9.97592 88.005 8.80741 88.8796 7.34802 89.3677L6.08289 87.8107C7.05614 87.2269 8.02841 86.3513 8.41791 85.5733C8.80641 84.8919 8.90404 83.9197 8.90404 81.6813V66.5056H11.8228V81.488C11.8228 84.5044 11.5309 85.6719 10.7529 86.8394V86.8374Z" fill="#4E7896"/>
</svg>
