<svg width="55" height="55" viewBox="0 0 55 55" fill="none" xmlns="http://www.w3.org/2000/svg">
<g clip-path="url(#clip0_574_6899)">
<path d="M27.3574 0.949033C26.8675 0.977817 26.3883 1.10475 25.9483 1.32228L6.86623 10.4242C5.86975 10.8984 5.1455 11.8007 4.89724 12.876L0.226443 33.3039C0.00386173 34.2627 0.183639 35.2677 0.740094 36.0896C0.805156 36.1889 0.873643 36.2847 0.945554 36.3772L14.1292 52.7695C14.8261 53.6256 15.8722 54.117 16.9749 54.1118H38.1201C39.2262 54.1135 40.274 53.5982 40.9692 52.7541L54.146 36.3584C54.8377 35.5023 55.0963 34.3722 54.8309 33.3004L50.1293 12.8554C49.881 11.7802 49.1533 10.8779 48.1603 10.4036L29.109 1.324C28.56 1.05323 27.9519 0.92432 27.3403 0.949033H27.3574Z" fill="#326CE5"/>
<path d="M27.5323 7.91064C26.8748 7.95687 26.3766 8.52018 26.4108 9.17765V9.49954C26.4416 9.86423 26.4964 10.2255 26.5683 10.5833C26.6733 11.2686 26.7112 11.9625 26.6813 12.6551C26.6163 12.8828 26.4861 13.0882 26.3081 13.2458L26.2824 13.7286C25.589 13.7868 24.9007 13.893 24.2227 14.0471C21.3702 14.6908 18.7728 16.1701 16.7679 18.3018L16.357 18.0107C16.1309 18.0792 15.8878 18.0535 15.6806 17.9422C15.1249 17.5309 14.6105 17.0664 14.1448 16.5554C13.9109 16.2759 13.6611 16.01 13.3966 15.7592L13.1432 15.5572C12.9172 15.3757 12.6398 15.2713 12.3505 15.2576C12.1778 15.2484 12.0054 15.2802 11.8474 15.3505C11.6894 15.4207 11.5502 15.5273 11.4413 15.6616C11.0544 16.2044 11.1811 16.956 11.7221 17.3447L11.9584 17.533C12.2625 17.7354 12.5781 17.92 12.9035 18.0861C13.5096 18.4234 14.0815 18.8189 14.6123 19.2846C14.748 19.4782 14.8269 19.7059 14.84 19.942L15.2132 20.2845C13.198 23.3082 12.371 26.9705 12.8881 30.5678L12.4087 30.7047C12.2837 30.9033 12.1176 31.0728 11.919 31.1978C11.2502 31.3764 10.5655 31.4894 9.87469 31.5351C9.50809 31.5426 9.14222 31.5712 8.7789 31.6207L8.47585 31.6892H8.44161C8.2313 31.7184 8.03322 31.8054 7.86941 31.9405C7.70561 32.0756 7.58251 32.2535 7.51383 32.4544C7.44514 32.6553 7.43357 32.8713 7.48038 33.0784C7.5272 33.2855 7.63057 33.4756 7.779 33.6274C7.92881 33.7785 8.11768 33.8849 8.32449 33.9348C8.5313 33.9846 8.74792 33.976 8.95012 33.9099H8.97238L9.28057 33.8757C9.62814 33.7729 9.97057 33.6462 10.3044 33.5024C10.9465 33.2456 11.6125 33.0487 12.294 32.9203C12.5303 32.934 12.7563 33.0144 12.948 33.1514L13.4617 33.0658C14.5746 36.5192 16.9134 39.4453 20.0364 41.2893L19.8275 41.7259C19.9234 41.9263 19.9594 42.1488 19.9302 42.3697C19.6477 43.0238 19.3019 43.6504 18.8978 44.2394C18.6761 44.5316 18.4715 44.8363 18.2849 45.152L18.1393 45.4602C18.0337 45.6433 17.9808 45.8521 17.9864 46.0635C17.992 46.2748 18.0559 46.4805 18.1711 46.6579C18.2862 46.8352 18.4481 46.9772 18.6389 47.0683C18.8297 47.1594 19.0419 47.196 19.2522 47.1741C19.463 47.1504 19.6631 47.0687 19.8302 46.9381C19.9974 46.8075 20.125 46.6332 20.1991 46.4344L20.3412 46.1433C20.4713 45.8009 20.5809 45.4516 20.6699 45.0989C20.973 44.3507 21.1373 43.5477 21.5517 43.0512C21.6871 42.9239 21.8577 42.8403 22.0414 42.8115L22.2982 42.344C25.6835 43.6453 29.4295 43.6544 32.8212 42.3697L33.0489 42.8063C33.2817 42.8406 33.4906 42.969 33.631 43.1573C33.9529 43.7703 34.2131 44.4123 34.4118 45.0749C34.5023 45.4297 34.6132 45.779 34.7439 46.1211L34.886 46.4121C34.9608 46.6102 35.0888 46.7836 35.256 46.9134C35.4232 47.0431 35.6231 47.1241 35.8334 47.1473C36.0438 47.1705 36.2565 47.1351 36.448 47.0449C36.6395 46.9548 36.8023 46.8134 36.9184 46.6364C37.0333 46.4584 37.0968 46.2521 37.1016 46.0402C37.1064 45.8283 37.0525 45.6193 36.9458 45.4362L36.7968 45.128C36.6102 44.8134 36.4055 44.5099 36.1839 44.2189C35.7901 43.6504 35.451 43.0443 35.1566 42.4091C35.1291 42.293 35.1252 42.1725 35.1452 42.0548C35.1652 41.9372 35.2087 41.8248 35.273 41.7242C35.1999 41.5749 35.1365 41.4211 35.0829 41.2637C38.1991 39.406 40.5276 36.4696 41.6285 33.011L42.1148 33.0966C42.2894 32.9374 42.5189 32.8535 42.7534 32.8603C43.4332 32.9905 44.0992 33.2028 44.743 33.4425C45.0769 33.5966 45.4193 33.7267 45.7669 33.8363C45.849 33.8585 45.9689 33.8774 46.0613 33.8996H46.0836C46.2857 33.9649 46.5019 33.9728 46.7082 33.9224C46.9145 33.872 47.1028 33.7654 47.2521 33.6143C47.4014 33.4633 47.5058 33.2738 47.5537 33.0669C47.6016 32.86 47.5912 32.6439 47.5235 32.4426C47.4543 32.2415 47.3306 32.0635 47.1661 31.9287C47.0016 31.7938 46.8029 31.7074 46.5921 31.6789L46.26 31.6002C45.8966 31.5506 45.5308 31.522 45.1642 31.5146C44.4725 31.4701 43.7876 31.3571 43.1198 31.1773C42.9144 31.0626 42.7432 30.8914 42.6267 30.6842L42.1645 30.5472C42.6574 26.9516 41.8129 23.3002 39.7914 20.2862L40.1955 19.9129C40.1783 19.6784 40.2554 19.4455 40.4078 19.2657C40.9334 18.8137 41.5036 18.4148 42.1028 18.0741C42.4282 17.908 42.7437 17.7233 43.0479 17.521L43.2979 17.319C43.482 17.2048 43.6299 17.0408 43.7246 16.8459C43.8193 16.6511 43.857 16.4335 43.8331 16.2182C43.8093 16.0029 43.725 15.7987 43.59 15.6293C43.455 15.4599 43.2748 15.3322 43.0702 15.261C42.8658 15.1898 42.6454 15.178 42.4346 15.2267C42.2237 15.2755 42.0309 15.383 41.8785 15.5366L41.6251 15.7387C41.3607 15.9895 41.1109 16.2554 40.8769 16.5348C40.4249 17.0519 39.9249 17.5228 39.3822 17.9439C39.1632 18.0331 38.9235 18.0592 38.6905 18.0193L38.2573 18.3275C35.7575 15.7079 32.3897 14.0813 28.7804 13.756C28.7804 13.5848 28.7582 13.3279 28.7548 13.2475C28.5613 13.1139 28.426 12.9102 28.3815 12.679C28.3578 11.9876 28.4013 11.2955 28.5116 10.6124C28.5853 10.2529 28.6366 9.89333 28.6692 9.52864V9.18621C28.7034 8.52874 28.2069 7.96543 27.5477 7.91921L27.5323 7.91064ZM26.1043 16.7557L25.7619 22.7363H25.7362C25.7191 23.1061 25.5016 23.4212 25.1678 23.5992C24.8339 23.7773 24.4384 23.7242 24.1405 23.5068L19.2351 20.0311C20.7964 18.4975 22.7552 17.4307 24.8904 16.9509C25.291 16.8653 25.6951 16.8002 26.1009 16.7557H26.1043ZM28.9602 16.7557C31.537 17.0759 33.9358 18.2333 35.7918 20.0499L30.9326 23.5034C30.633 23.7431 30.2221 23.791 29.8745 23.6266C29.5269 23.4623 29.3044 23.113 29.2992 22.7295L28.9602 16.7557ZM17.4545 22.2809L21.9403 26.2839V26.3096C22.2194 26.5527 22.341 26.9311 22.2588 27.2924C22.1766 27.6536 21.8992 27.9396 21.5448 28.0372V28.0543L15.7885 29.71C15.5037 27.1166 16.0904 24.5021 17.4562 22.2792L17.4545 22.2809ZM37.5776 22.2809C38.9404 24.4981 39.5431 27.0989 39.2931 29.6894L33.5283 28.0286V28.0063C33.1687 27.9088 32.8948 27.6228 32.8143 27.2616C32.7338 26.9003 32.8537 26.5253 33.1328 26.2788L37.5844 22.2946L37.5776 22.2809ZM26.6128 26.5955H28.4483L29.5697 28.02L29.1623 29.8007L27.5134 30.5934L25.8612 29.8007L25.4725 28.02L26.6128 26.5955ZM32.4924 31.4547C32.5695 31.4461 32.6636 31.4461 32.7236 31.4547L38.6596 32.4563C37.8036 34.9218 36.1137 37.0278 33.9084 38.4369L31.6141 32.8826C31.551 32.7336 31.5246 32.5716 31.5372 32.4103C31.5498 32.249 31.6009 32.093 31.6864 31.9556C31.7718 31.8181 31.889 31.7032 32.028 31.6205C32.1671 31.5378 32.324 31.4898 32.4856 31.4803L32.4924 31.4547ZM22.5225 31.4803C22.8581 31.4855 23.168 31.6584 23.3512 31.9392C23.5344 32.22 23.5635 32.5727 23.4316 32.8809V32.9031L21.151 38.4129C18.968 37.0141 17.3106 34.9338 16.4289 32.4939L22.3136 31.4957C22.3786 31.4889 22.4454 31.4889 22.5122 31.4957L22.5225 31.4803ZM27.4946 33.8774C27.6817 33.8715 27.8667 33.9177 28.029 34.0108C28.1914 34.1039 28.3247 34.2403 28.414 34.4047H28.4363L31.3367 39.6388L30.1776 39.9812C28.0442 40.4692 25.8167 40.3545 23.7432 39.6491L26.6539 34.415C26.8303 34.1068 27.1556 33.9185 27.51 33.9099L27.4946 33.8774Z" fill="white" stroke="white" stroke-width="0.0753354"/>
</g>
<defs>
<clipPath id="clip0_574_6899">
<rect width="54.7893" height="54.7893" fill="white" transform="translate(0.133789 0.134033)"/>
</clipPath>
</defs>
</svg>
