<svg width="69" height="69" viewBox="0 0 69 69" fill="none" xmlns="http://www.w3.org/2000/svg">
<g clip-path="url(#clip0_574_6979)">
<path d="M34.3695 0.537598L36.1967 3.96936C36.6074 4.60265 37.0525 5.16321 37.5766 5.68524C39.1064 7.21499 40.5591 8.81748 41.8642 10.5334C44.9601 14.5984 47.0482 19.1128 48.5395 23.9951C49.4338 26.9776 49.9194 30.0371 49.9558 33.1308C50.1056 42.3799 46.9348 50.3217 40.542 56.9221C39.4979 57.9662 38.3811 58.9332 37.183 59.7933C36.5497 59.7933 36.2502 59.3076 35.9891 58.8605C35.5035 58.041 35.2061 57.1061 35.0563 56.1754C34.8317 55.0564 34.684 53.9375 34.7568 52.7821V52.2601C34.7054 52.1488 34.147 0.800757 34.3695 0.537598Z" fill="#599636"/>
<path d="M34.3689 0.424191C34.294 0.274426 34.2191 0.38782 34.1442 0.460563C34.1806 1.20939 33.9196 1.87691 33.5109 2.51449C33.0616 3.14778 32.4669 3.63345 31.8699 4.15549C28.5537 7.0267 25.9435 10.4948 23.8532 14.3738C21.0719 19.5941 19.6384 25.1889 19.2319 31.079C19.0458 33.2035 19.9037 40.7003 20.5734 42.8634C22.4005 48.6058 25.6825 53.4175 29.9337 57.5939C30.9778 58.5994 32.0946 59.5323 33.2499 60.4287C33.5858 60.4287 33.6222 60.1292 33.6992 59.9067C33.8465 59.4305 33.9588 58.9443 34.0351 58.4518L34.7839 52.8591L34.3689 0.424191Z" fill="#6CAC48"/>
<path d="M36.1961 62.0655C36.271 61.2097 36.6818 60.4994 37.1289 59.7912C36.6796 59.6051 36.3459 59.2349 36.0848 58.822C35.8602 58.4497 35.6741 58.0026 35.5286 57.5918C35.0065 56.0257 34.8953 54.3825 34.7455 52.7822V51.813C34.5594 51.9628 34.5209 53.2293 34.5209 53.4176C34.412 55.1091 34.1875 56.7911 33.8491 58.4519C33.7378 59.1237 33.6629 59.7933 33.25 60.3903C33.25 60.4651 33.25 60.54 33.2864 60.6513C33.9582 62.6282 34.1422 64.6415 34.2556 66.6932V67.4421C34.2556 68.3364 34.2192 68.1481 34.9616 68.4476C35.2611 68.5589 35.5949 68.5974 35.8944 68.8199C36.1191 68.8199 36.1554 68.6338 36.1554 68.484L36.0442 67.2538V63.822C36.0078 63.223 36.1191 62.6282 36.194 62.0676L36.1961 62.0655Z" fill="#C2BFBF"/>
</g>
<defs>
<clipPath id="clip0_574_6979">
<rect width="68.4641" height="68.4641" fill="white" transform="translate(0.351562 0.351318)"/>
</clipPath>
</defs>
</svg>
