<svg width="68" height="68" viewBox="0 0 68 68" fill="none" xmlns="http://www.w3.org/2000/svg">
<g clip-path="url(#clip0_574_6891)">
<path fill-rule="evenodd" clip-rule="evenodd" d="M61.8609 52.4575C58.2636 52.3573 55.4729 52.726 53.1338 53.71C52.4603 53.9805 51.3795 53.9805 51.2908 54.8281C51.6507 55.1838 51.6941 55.766 52.0097 56.2589C52.5491 57.1537 53.4948 58.3591 54.3487 58.9843L57.2272 61.0413C58.9814 62.1134 60.9606 62.7396 62.6695 63.8127C63.6595 64.4389 64.6486 65.2435 65.6387 65.9148C66.1428 66.2725 66.4483 66.8547 67.0784 67.0771V66.9418C66.7638 66.5411 66.6731 65.9599 66.3595 65.511L65.0085 64.2155C63.7049 62.4721 62.0847 60.9511 60.3304 59.7007C58.8907 58.7167 55.7431 57.3761 55.1583 55.7229L55.0696 55.6227C56.0576 55.5225 57.2272 55.1748 58.1729 54.9063C59.7033 54.5055 61.0967 54.5937 62.6695 54.1919L64.8301 53.5657V53.1649C64.0205 52.3603 63.4357 51.2872 62.5818 50.5277C60.2881 48.5609 57.7676 46.6381 55.1583 45.029C53.764 44.1352 51.9643 43.5531 50.4802 42.7946C49.9388 42.5261 49.0405 42.3918 48.7259 41.9449C47.9143 40.963 47.4657 39.6655 46.8809 38.5022L43.1929 30.724C42.3833 28.9806 41.8872 27.2371 40.8992 25.628C36.2655 18.0281 31.2264 13.4241 23.4894 8.90827C21.8259 7.96943 19.8467 7.56564 17.7426 7.07468L14.3691 6.89433C13.6483 6.58171 12.9294 5.73205 12.2993 5.32926C9.7354 3.72011 3.12254 0.233289 1.23215 4.82828C0.017256 7.73397 3.0318 10.5946 4.05514 12.0705C4.82138 13.0985 5.80942 14.2607 6.35083 15.423C6.65329 16.1825 6.75412 16.9881 7.06969 17.7927C7.78854 19.7595 8.46405 21.9508 9.40874 23.7844C9.91284 24.7232 10.4422 25.7082 11.0723 26.5568C11.4322 27.0578 12.0623 27.2722 12.1964 28.0768C11.5663 28.9715 11.523 30.3112 11.163 31.4303C9.54283 36.4822 10.173 42.7405 12.4666 46.4598C13.1875 47.577 14.8863 50.0368 17.1911 49.0969C19.2156 48.2923 18.7639 45.7444 19.3487 43.509C19.4848 42.9729 19.3941 42.6152 19.6632 42.2565V42.3567L21.5083 46.067C22.9026 48.2573 25.3324 50.5377 27.3559 52.0587C28.4347 52.8633 29.2896 54.25 30.6386 54.741V54.6057H30.5499C30.2797 54.2049 29.8744 54.0246 29.5145 53.712C28.7049 52.9074 27.8056 51.9235 27.1754 51.0297C25.2871 48.5268 23.6235 45.7544 22.1384 42.8938C21.4175 41.5081 20.7874 39.9881 20.2047 38.6024C19.9324 38.0653 19.9324 37.2598 19.4838 36.9932C18.8083 37.9752 17.8202 38.8268 17.3232 40.0332C16.4682 41.9549 16.3795 44.3246 16.0649 46.7834C15.8835 46.8285 15.9641 46.7834 15.8835 46.8836C14.4458 46.5269 13.9497 45.05 13.4103 43.7996C12.0613 40.6253 11.8355 35.5294 13.005 31.8632C13.3196 30.9244 14.6706 27.9736 14.1312 27.0798C13.859 26.2302 12.9617 25.7392 12.4656 25.0679C11.8809 24.2182 11.2528 23.1461 10.8474 22.2073C9.76866 19.7024 9.22927 16.932 8.05874 14.4281C7.51733 13.2658 6.57365 12.0584 5.80842 10.9863C4.95346 9.77897 4.01078 8.92931 3.33528 7.49951C3.11045 6.99853 2.79588 6.20297 3.15581 5.66592C3.24454 5.30822 3.42601 5.16494 3.78393 5.08478C4.36869 4.5838 6.03425 5.21905 6.61901 5.48557C8.28256 6.15688 9.67692 6.78211 11.0713 7.71994C11.7014 8.16682 12.3769 9.01648 13.1865 9.24092H14.1322C15.5719 9.55353 17.1901 9.34112 18.5381 9.7419C20.9225 10.5034 23.0811 11.6196 25.0168 12.8279C30.9088 16.5382 35.7684 21.8135 39.0511 28.1179C39.5905 29.1459 39.8154 30.0847 40.3114 31.1578C41.2571 33.3491 42.4266 35.5835 43.3693 37.7307C44.315 39.8318 45.2143 41.979 46.5633 43.7224C47.2388 44.6612 49.9368 45.1522 51.1507 45.6442C52.051 46.0449 53.4444 46.4057 54.256 46.8966C55.7844 47.8355 57.3139 48.9086 58.7526 49.9366C59.4714 50.4716 61.7218 51.5898 61.8559 52.4816L61.8609 52.4575ZM15.9873 13.6095C15.3658 13.604 14.7463 13.6791 14.1443 13.8329V13.9331H14.233C14.593 14.6485 15.2231 15.1405 15.6728 15.7667L16.7082 17.9129L16.7969 17.8127C17.427 17.3658 17.7426 16.6504 17.7426 15.5783C17.4724 15.2657 17.428 14.9521 17.2032 14.6395C16.933 14.1926 16.3483 13.9682 15.9873 13.6115V13.6095Z" fill="#00678C"/>
</g>
<defs>
<clipPath id="clip0_574_6891">
<rect width="66.1412" height="66.1412" fill="white" transform="translate(0.9375 0.937012)"/>
</clipPath>
</defs>
</svg>
