<svg width="57" height="62" viewBox="0 0 57 62" fill="none" xmlns="http://www.w3.org/2000/svg">
<g clip-path="url(#clip0_574_6991)">
<path d="M42.4631 41.6852L42.4762 55.0657L30.6026 60.9908V47.6162L42.4631 41.6852ZM56.7132 34.5338V47.9611L46.5861 53.0151L46.5788 39.6493L56.7132 34.5338ZM42.4455 23.7754L42.4587 37.0156L30.6026 42.9071V29.6625L42.4455 23.7754ZM56.7132 16.6825V29.8394L46.5759 34.9928L46.5671 21.7263L56.7132 16.6825ZM28.7976 15.1259L39.3953 20.4752L28.4 25.9969L18.0026 20.7748L28.7976 15.1259ZM14.0564 7.68521L24.1645 12.7875L13.3446 18.4349L2.96326 13.2216L14.0564 7.68521ZM42.9512 7.76267L53.8383 13.2216L44.1015 18.1119L33.4818 12.7553L42.9512 7.76267ZM28.4643 0.497314L38.2655 5.41104L28.8677 10.4285L18.7684 5.33504L28.4643 0.497314Z" fill="#4DABCF"/>
<path d="M26.4109 29.6626L18.4133 25.6419V43.0212C18.4133 43.0212 8.63258 22.2102 7.72642 20.3409C7.6095 20.0997 7.12865 19.8352 7.00588 19.7709C5.25202 18.8501 0.11322 16.2471 0.11322 16.2471V46.9513L7.22219 50.7513V34.702C7.22219 34.702 16.8991 53.2973 16.997 53.5005C17.0949 53.7036 18.0669 55.6636 19.1046 56.3519C20.4872 57.2669 26.4123 60.8301 26.4123 60.8301L26.4109 29.6626Z" fill="#4D77CF"/>
</g>
<defs>
<clipPath id="clip0_574_6991">
<rect width="56.5997" height="60.5794" fill="white" transform="translate(0.11322 0.497314)"/>
</clipPath>
</defs>
</svg>
