<svg width="61" height="63" viewBox="0 0 61 63" fill="none" xmlns="http://www.w3.org/2000/svg">
<path d="M45.058 45.4828C45.441 42.2382 45.3259 41.7648 47.6992 42.2884L48.3031 42.3434C50.1288 42.4271 52.5162 42.0445 53.9425 41.3822C56.962 39.9572 58.7525 37.5757 55.7754 38.2022C48.9845 39.6272 48.491 37.2864 48.491 37.2864C55.6649 26.4552 58.6656 12.7069 56.0738 9.3428C49.015 0.161362 36.7939 4.50342 36.5894 4.61819L36.5236 4.63014C35.1843 4.34322 33.7039 4.17585 31.9886 4.15194C28.9151 4.10412 26.5841 4.97205 24.8124 6.33731C24.8124 6.33731 3.01349 -2.80109 4.02625 17.8309C4.24243 22.2207 10.2062 51.0657 17.326 42.3386C19.9319 39.149 22.4461 36.4543 22.4461 36.4543C23.6915 37.2984 25.1883 37.7288 26.7556 37.5733L26.8778 37.4681C26.8416 37.8814 26.8582 38.2977 26.9272 38.7067C25.0943 40.7916 25.6348 41.1574 21.9691 41.925C18.2612 42.702 20.4418 44.0864 21.861 44.4499C23.5858 44.8898 27.5757 45.5115 30.2732 41.6715L30.1651 42.1091C30.8842 42.6949 30.8348 46.3172 30.9406 48.9043C31.0463 51.4913 31.2131 53.9086 31.7324 55.3313C32.2517 56.7539 32.8603 60.4241 37.6774 59.396C41.7025 58.5185 44.7808 57.2537 45.0627 45.5043" fill="#041836"/>
<path d="M45.058 45.4828C45.441 42.2382 45.3259 41.7648 47.6992 42.2884L48.3031 42.3434C50.1288 42.4271 52.5162 42.0445 53.9425 41.3822C56.962 39.9572 58.7525 37.5757 55.7754 38.2022C48.9845 39.6272 48.491 37.2864 48.491 37.2864C55.6649 26.4552 58.6656 12.7069 56.0738 9.3428C49.015 0.161362 36.7939 4.50342 36.5894 4.61819L36.5236 4.63014C35.1843 4.34322 33.7039 4.17585 31.9886 4.15194C28.9151 4.10412 26.5841 4.97205 24.8124 6.33731C24.8124 6.33731 3.01349 -2.80109 4.02625 17.8309C4.24243 22.2207 10.2062 51.0657 17.326 42.3386C19.9319 39.149 22.4461 36.4543 22.4461 36.4543C23.6915 37.2984 25.1883 37.7288 26.7556 37.5733L26.8778 37.4681C26.8416 37.8814 26.8582 38.2977 26.9272 38.7067C25.0943 40.7916 25.6348 41.1574 21.9691 41.925C18.2612 42.702 20.4418 44.0864 21.861 44.4499C23.5858 44.8898 27.5757 45.5115 30.2732 41.6715L30.1651 42.1091C30.8842 42.6949 30.8348 46.3172 30.9406 48.9043C31.0463 51.4913 31.2131 53.9086 31.7324 55.3313C32.2517 56.7539 32.8603 60.4241 37.6774 59.396C41.7025 58.5185 44.7808 57.2537 45.0627 45.5043" stroke="#041836" stroke-width="4.03973"/>
<path d="M55.7544 38.2237C48.9635 39.6487 48.4701 37.308 48.4701 37.308C55.6439 26.4767 58.6446 12.7285 56.0551 9.36435C48.9964 0.182909 36.7752 4.52735 36.5708 4.63973L36.505 4.65169C35.0123 4.34692 33.4947 4.18601 31.9723 4.1711C28.8988 4.12328 26.5678 4.99121 24.7961 6.35647C24.7961 6.35647 2.99486 -2.78193 4.00997 17.85C4.22614 22.2399 10.1899 51.0849 17.3097 42.3577C19.932 39.149 22.4463 36.4544 22.4463 36.4544C23.6917 37.2984 25.1885 37.7288 26.7558 37.5734L26.878 37.4682C26.8421 37.8814 26.8587 38.2977 26.9273 38.7067C25.0945 40.7916 25.6349 41.1575 21.9693 41.925C18.2614 42.702 20.4419 44.0864 21.8612 44.4499C23.5859 44.8898 27.5759 45.5115 30.2734 41.6715L30.1653 42.1091C30.8843 42.6949 31.3872 45.9179 31.3026 48.8397C31.218 51.7615 31.1616 53.7652 31.7256 55.3337C32.2895 56.9022 32.8535 60.4265 37.6705 59.3984C41.6957 58.5209 43.7799 56.2423 44.0736 52.4501C44.2804 49.7531 44.7457 50.15 44.7786 47.7399L45.1545 46.597C45.5845 42.9388 45.225 41.76 47.704 42.3099L48.3079 42.3649C50.1337 42.4486 52.5234 42.066 53.9239 41.4037C56.9434 39.9787 58.7339 37.5973 55.7567 38.2237H55.7544Z" fill="#336791"/>
<path d="M30.5615 40.2966C30.3735 47.1014 30.6085 53.954 31.2617 55.599C31.915 57.244 33.3178 60.5005 38.1372 59.4533C42.1623 58.5758 43.6286 56.8758 44.263 53.1243L45.7504 41.1287M24.7857 6.1842C24.7857 6.1842 2.97043 -2.89203 3.98553 17.7399C4.20171 22.1298 10.1654 50.9748 17.2853 42.2477C19.8841 39.0604 22.2339 36.5666 22.2339 36.5666M36.5675 4.52724C35.8156 4.76634 48.7018 -0.266714 56.0284 9.25664C58.6131 12.6208 55.6171 26.369 48.4433 37.2002" stroke="white" stroke-width="1.34595" stroke-linecap="round" stroke-linejoin="round"/>
<path d="M48.4455 37.1955C48.4455 37.1955 48.9155 39.5386 55.7298 38.1088C58.707 37.4824 56.9141 39.8638 53.897 41.2889C51.4204 42.4604 45.8655 42.7593 45.7738 41.1454C45.5389 36.9731 48.697 38.2403 48.469 37.1955C48.2623 36.2534 46.8477 35.3305 45.9172 33.0256C45.1018 31.0171 34.7322 15.5952 48.7933 17.8834C49.3103 17.7758 45.1277 4.25466 31.9689 4.0586C18.8102 3.86254 19.2261 20.5206 19.2261 20.5206" stroke="white" stroke-width="1.34595" stroke-linecap="round" stroke-linejoin="bevel"/>
<path d="M26.8795 38.6253C25.0467 40.7103 25.5871 41.0761 21.9215 41.8436C18.2135 42.6207 20.3941 44.0051 21.8134 44.3685C23.5381 44.8084 27.528 45.4301 30.2256 41.5878C31.048 40.4162 30.2209 38.5512 29.093 38.0778C28.5478 37.8482 27.8194 37.5613 26.8842 38.6277L26.8795 38.6253Z" stroke="white" stroke-width="1.34595" stroke-linejoin="round"/>
<path d="M26.7597 38.5894C26.5717 37.3628 27.1545 35.9067 27.7772 34.1995C28.7124 31.6412 30.8695 29.0828 29.1447 20.9606C27.8594 14.9113 19.2287 19.7005 19.2287 20.5206C19.2287 21.3407 19.6187 24.681 19.0877 28.5663C18.3898 33.64 22.2599 37.9295 26.7151 37.4919" stroke="white" stroke-width="1.34595" stroke-linecap="round" stroke-linejoin="round"/>
<path d="M24.707 20.3989C24.667 20.6786 25.2122 21.427 25.9195 21.5274C26.6268 21.6279 27.2306 21.0445 27.2706 20.7623C27.3105 20.4802 26.7654 20.1741 26.0581 20.0737C25.3508 19.9733 24.7422 20.1215 24.707 20.3989Z" fill="white" stroke="white" stroke-width="0.449277"/>
<path d="M46.2409 19.8274C46.2785 20.1071 45.7357 20.8555 45.0284 20.9559C44.3211 21.0563 43.7125 20.4729 43.6773 20.1908C43.642 19.9087 44.1825 19.6026 44.8897 19.5022C45.597 19.4018 46.2056 19.55 46.2409 19.8274Z" fill="white" stroke="white" stroke-width="0.223699"/>
<path d="M48.7686 17.8882C48.8861 20.0879 48.3033 21.5823 48.2281 23.9231C48.1201 27.3231 49.8213 31.2156 47.2577 35.1129" stroke="white" stroke-width="1.34595" stroke-linecap="round" stroke-linejoin="round"/>
</svg>
