<svg width="55" height="55" viewBox="0 0 55 55" fill="none" xmlns="http://www.w3.org/2000/svg">
<g clip-path="url(#clip0_574_6942)">
<path d="M27.2999 0.503662C13.5502 0.503663 14.4088 6.46636 14.4088 6.46636L14.4242 12.6437H27.5452V14.4984H9.21255C9.21255 14.4984 0.414124 13.5006 0.414124 27.3741C0.414123 41.2477 8.09359 40.7557 8.09359 40.7557H12.6767V34.3178C12.6767 34.3178 12.4297 26.6384 20.2336 26.6384H33.2473C33.2473 26.6384 40.5589 26.7566 40.5589 19.572V7.69262C40.5589 7.69262 41.669 0.503662 27.2999 0.503662ZM20.065 4.65763C21.3704 4.65762 22.4255 5.71274 22.4255 7.01818C22.4255 8.32362 21.3704 9.37873 20.065 9.37873C18.7595 9.37874 17.7044 8.32362 17.7044 7.01818C17.7044 5.71274 18.7595 4.65763 20.065 4.65763Z" fill="url(#paint0_linear_574_6942)"/>
<path d="M27.691 54.3839C41.4407 54.3839 40.5821 48.4212 40.5821 48.4212L40.5668 42.2439H27.4458V40.3891H45.7784C45.7784 40.3891 54.5768 41.387 54.5768 27.5134C54.5768 13.6398 46.8973 14.1318 46.8973 14.1318H42.3142V20.5697C42.3142 20.5697 42.5612 28.2491 34.7573 28.2491H21.7436C21.7436 28.2491 14.4321 28.1309 14.4321 35.3155V47.1949C14.4321 47.1949 13.322 54.3839 27.691 54.3839ZM34.926 50.2299C33.6205 50.2299 32.5654 49.1748 32.5654 47.8693C32.5654 46.5639 33.6205 45.5088 34.926 45.5088C36.2314 45.5088 37.2865 46.5639 37.2865 47.8693C37.2865 49.1748 36.2314 50.2299 34.926 50.2299Z" fill="url(#paint1_linear_574_6942)"/>
</g>
<defs>
<linearGradient id="paint0_linear_574_6942" x1="5.6192" y1="5.35003" x2="32.46" y2="31.923" gradientUnits="userSpaceOnUse">
<stop stop-color="#387EB8"/>
<stop offset="1" stop-color="#366994"/>
</linearGradient>
<linearGradient id="paint1_linear_574_6942" x1="22.0947" y1="22.4136" x2="50.9188" y2="49.6619" gradientUnits="userSpaceOnUse">
<stop stop-color="#FFE052"/>
<stop offset="1" stop-color="#FFC331"/>
</linearGradient>
<clipPath id="clip0_574_6942">
<rect width="54.2928" height="54.0807" fill="white" transform="translate(0.382812 0.488281)"/>
</clipPath>
</defs>
</svg>
