<svg width="67" height="59" viewBox="0 0 67 59" fill="none" xmlns="http://www.w3.org/2000/svg">
<g clip-path="url(#clip0_574_6867)">
<path d="M1.11719 29.465C1.11719 34.3828 5.89621 38.9737 13.4307 41.5614C11.9262 49.1725 13.1611 55.3071 17.2859 57.6974C21.5257 60.1542 27.8421 58.4536 33.8371 53.1879C39.681 58.241 45.5872 60.2297 49.7081 57.8325C53.9438 55.3686 55.2322 48.818 53.6861 40.9693C61.5337 38.3622 65.9234 34.4475 65.9234 29.465C65.9234 24.6613 61.1355 20.5054 53.7026 17.9342C55.3671 9.76117 53.9567 3.77552 49.6612 1.28643C45.5199 -1.1132 39.5451 0.978327 33.6153 6.16379C27.4464 0.65983 21.5306 -1.0206 17.2392 1.47574C13.1019 3.88219 11.9213 10.1282 13.4307 17.8802C6.15062 20.4308 1.11719 24.6805 1.11719 29.465Z" fill="white"/>
<path d="M52.1294 20.4877C51.5323 20.2812 50.9137 20.0858 50.2767 19.901C50.3814 19.4717 50.4774 19.0479 50.5629 18.6313C51.9654 11.7906 51.0484 6.27975 47.9171 4.46533C44.9147 2.72555 40.0044 4.53955 35.0453 8.8762C34.5684 9.29321 34.0902 9.73471 33.6122 10.1974C33.2937 9.89129 32.9757 9.59544 32.6585 9.31246C27.4612 4.67543 22.2516 2.72133 19.1235 4.54099C16.1239 6.28582 15.2356 11.4666 16.498 17.9495C16.6199 18.5757 16.7624 19.2152 16.9236 19.8653C16.1863 20.0756 15.4745 20.2998 14.7934 20.5383C8.70013 22.673 4.80865 26.0186 4.80865 29.4888C4.80865 33.0728 8.98615 36.6677 15.3328 38.8474C15.8337 39.0194 16.3534 39.1821 16.889 39.3365C16.7151 40.0397 16.5639 40.7287 16.437 41.4008C15.2332 47.7713 16.1733 52.8296 19.1649 54.5634C22.2549 56.354 27.4409 54.5135 32.4907 50.078C32.8898 49.7274 33.2904 49.3556 33.6917 48.9659C34.2118 49.4692 34.7311 49.9455 35.2476 50.3922C40.1389 54.6217 44.9699 56.3296 47.9587 54.5909C51.0457 52.7952 52.049 47.3614 50.7465 40.7502C50.647 40.2452 50.5312 39.7294 50.4012 39.2044C50.7654 39.0962 51.123 38.9845 51.4716 38.8684C58.0695 36.6718 62.3624 33.1207 62.3624 29.4888C62.3624 26.006 58.3454 22.6379 52.1294 20.4877Z" fill="#53C1DE"/>
<path d="M50.6987 36.5233C50.384 36.628 50.061 36.7292 49.732 36.8273C49.0036 34.5102 48.0205 32.0463 46.8175 29.5007C47.9655 27.0158 48.9106 24.5834 49.6186 22.2814C50.2073 22.4525 50.7788 22.6331 51.3294 22.8236C56.6553 24.666 59.9041 27.3898 59.9041 29.4887C59.9041 31.7243 56.3955 34.6265 50.6987 36.5233ZM48.3349 41.2299C48.9108 44.1533 48.9931 46.7964 48.6116 48.8626C48.2688 50.7192 47.5794 51.957 46.7271 52.4528C44.9133 53.5077 41.0345 52.1365 36.8514 48.5194C36.3719 48.1047 35.8888 47.662 35.4043 47.1934C37.026 45.4112 38.6467 43.3393 40.2286 41.0383C43.0109 40.7902 45.6395 40.3847 48.0233 39.8309C48.1407 40.3068 48.245 40.7736 48.3349 41.2299ZM24.4304 52.2705C22.6583 52.8993 21.2469 52.9174 20.3937 52.423C18.5783 51.3709 17.8236 47.3095 18.8531 41.8615C18.971 41.2376 19.1113 40.5967 19.2731 39.9416C21.6308 40.4655 24.2401 40.8424 27.0291 41.0696C28.6216 43.3212 30.2892 45.3908 31.9697 47.203C31.6025 47.5591 31.2368 47.8982 30.8731 48.2177C28.6401 50.1791 26.4024 51.5706 24.4304 52.2705ZM16.1283 36.5096C13.322 35.5458 11.0044 34.2931 9.41574 32.9262C7.98828 31.6978 7.26758 30.4782 7.26758 29.4887C7.26758 27.3828 10.392 24.6968 15.6031 22.8712C16.2354 22.6497 16.8973 22.4409 17.5842 22.2448C18.3044 24.5988 19.2491 27.06 20.3892 29.5488C19.2344 32.0745 18.2762 34.5749 17.5489 36.9566C17.0593 36.8151 16.5848 36.6663 16.1283 36.5096ZM18.9113 17.475C17.8296 11.9206 18.548 7.73052 20.3556 6.67909C22.2811 5.559 26.5388 7.15601 31.0263 11.1599C31.3131 11.4158 31.6011 11.6836 31.8899 11.9607C30.2177 13.7649 28.5653 15.819 26.987 18.0573C24.2802 18.3094 21.6891 18.7144 19.3069 19.2567C19.1571 18.6513 19.0245 18.0565 18.9113 17.475ZM43.7373 23.6348C43.1678 22.6464 42.5832 21.6813 41.9872 20.7426C43.8235 20.9759 45.5829 21.2855 47.2351 21.6644C46.7391 23.2619 46.1208 24.9321 45.393 26.6443C44.871 25.6483 44.3188 24.6441 43.7373 23.6348ZM33.6133 13.7263C34.7474 14.9609 35.8831 16.3393 37.0001 17.8348C35.8745 17.7813 34.7349 17.7536 33.5859 17.7536C32.4477 17.7536 31.3165 17.7807 30.1978 17.8332C31.316 16.3516 32.4615 14.9751 33.6133 13.7263ZM23.4245 23.6519C22.8556 24.6431 22.3137 25.6418 21.7998 26.6424C21.0838 24.9362 20.4713 23.2584 19.9709 21.6383C21.613 21.2691 23.3641 20.9671 25.1888 20.7383C24.5843 21.6856 23.9949 22.6578 23.4245 23.6517V23.6519ZM25.2413 38.4153C23.3561 38.204 21.5787 37.9176 19.937 37.5585C20.4454 35.9095 21.0714 34.1959 21.8026 32.4529C22.3177 33.4528 22.8618 34.4519 23.4342 35.4453H23.4343C24.0173 36.4573 24.6213 37.4486 25.2413 38.4153ZM33.6813 45.4252C32.516 44.1618 31.3537 42.7643 30.2185 41.2611C31.3205 41.3045 32.444 41.3268 33.5859 41.3268C34.759 41.3268 35.9186 41.3002 37.0601 41.2491C35.9393 42.7794 34.8077 44.1791 33.6813 45.4252ZM45.4165 32.3641C46.1858 34.1259 46.8342 35.8306 47.3491 37.4515C45.6804 37.834 43.8787 38.1421 41.9804 38.371C42.5779 37.4197 43.1676 36.438 43.7472 35.4283C44.3335 34.4067 44.8901 33.3836 45.4165 32.3641ZM41.6174 34.1941C40.7178 35.7615 39.7941 37.2579 38.8564 38.6703C37.1486 38.793 35.3842 38.8562 33.5859 38.8562C31.7948 38.8562 30.0526 38.8003 28.375 38.6909C27.3995 37.2599 26.4558 35.7592 25.5619 34.2075H25.5621C24.6705 32.6602 23.8499 31.0997 23.1064 29.548C23.8497 27.9927 24.6681 26.4304 25.5546 24.8858L25.5544 24.8861C26.4432 23.3374 27.3786 21.844 28.3451 20.422C30.0567 20.2919 31.8119 20.2241 33.5858 20.2241H33.5859C35.3677 20.2241 37.1251 20.2925 38.8363 20.4236C39.788 21.8352 40.7171 23.3238 41.6093 24.8728C42.5118 26.4391 43.3408 27.9909 44.0905 29.5129C43.343 31.061 42.5159 32.6285 41.6174 34.1941ZM46.6894 6.60559C48.6167 7.72239 49.3662 12.2264 48.1553 18.1326C48.078 18.5094 47.991 18.8933 47.8966 19.2823C45.5088 18.7287 42.9159 18.3167 40.2012 18.0608C38.6198 15.7979 36.981 13.7407 35.336 11.9596C35.7783 11.5321 36.2199 11.1244 36.6597 10.7398C40.9087 7.02414 44.88 5.55715 46.6894 6.60559Z" fill="white"/>
<path d="M33.5856 24.3242C36.424 24.3242 38.725 26.6362 38.725 29.4884C38.725 32.3404 36.424 34.6526 33.5856 34.6526C30.7473 34.6526 28.4463 32.3404 28.4463 29.4884C28.4463 26.6362 30.7473 24.3242 33.5856 24.3242Z" fill="#53C1DE"/>
</g>
<defs>
<clipPath id="clip0_574_6867">
<rect width="65.2061" height="58.8667" fill="white" transform="translate(0.925781 0.095459)"/>
</clipPath>
</defs>
</svg>
