<svg width="59" height="51" viewBox="0 0 59 51" fill="none" xmlns="http://www.w3.org/2000/svg">
<g clip-path="url(#clip0_574_6968)">
<path d="M56.1399 38.8276C53.0575 40.4342 37.09 46.9995 33.6906 48.7717C30.2913 50.5442 28.4028 50.527 25.7173 49.2432C23.032 47.9595 6.03975 41.0957 2.97878 39.6326C1.44909 38.9016 0.644531 38.2843 0.644531 37.7013V31.8632C0.644531 31.8632 22.7664 27.0474 26.3377 25.7661C29.9088 24.4848 31.1479 24.4385 34.187 25.5517C37.2265 26.6654 55.3992 29.9441 58.4029 31.0442L58.4015 36.7997C58.402 37.3768 57.7089 38.0099 56.1399 38.8276Z" fill="#B1140A"/>
<path d="M56.1387 33.0239C53.0566 34.6299 37.0895 41.1954 33.6901 42.9674C30.291 44.74 28.4025 44.7227 25.7172 43.4389C23.0317 42.156 6.04015 35.2911 2.97941 33.8289C-0.081334 32.3658 -0.14541 31.3588 2.86118 30.1816C5.86777 29.0038 22.7661 22.374 26.3379 21.0927C29.909 19.8119 31.1479 19.7652 34.187 20.8789C37.2263 21.9921 53.0981 28.3096 56.1013 29.4095C59.1056 30.5107 59.2209 31.4175 56.1387 33.0239Z" fill="#F34109"/>
<path d="M56.1399 29.3811C53.0575 30.988 37.09 37.553 33.6906 39.326C30.2913 41.0977 28.4028 41.0806 25.7173 39.7968C23.0318 38.5137 6.03975 31.6493 2.97878 30.1861C1.44909 29.4551 0.644531 28.8388 0.644531 28.2555V22.4168C0.644531 22.4168 22.7664 17.6012 26.3377 16.3199C29.9088 15.0386 31.1479 14.9921 34.187 16.1055C37.2268 17.219 55.3994 20.497 58.4029 21.5973L58.4015 27.3535C58.402 27.9304 57.7089 28.5635 56.1399 29.3811Z" fill="#B1140A"/>
<path d="M56.1387 23.5773C53.0566 25.1837 37.0895 31.7487 33.6901 33.5214C30.291 35.2934 28.4025 35.276 25.7172 33.9923C23.0317 32.7094 6.04015 25.8447 2.97941 24.3823C-0.081334 22.9196 -0.14541 21.9124 2.86118 20.7347C5.86777 19.5576 22.7664 12.9274 26.3379 11.6463C29.909 10.3653 31.1479 10.3188 34.187 11.4322C37.2263 12.5454 53.0981 18.8625 56.1013 19.9628C59.1056 21.0639 59.2209 21.9708 56.1387 23.5773Z" fill="#F34109"/>
<path d="M56.1399 19.5845C53.0575 21.1909 37.09 27.7564 33.6906 29.5293C30.2913 31.3014 28.4028 31.284 25.7173 30.0002C23.0318 28.7171 6.03975 21.8525 2.97878 20.39C1.44909 19.6583 0.644531 19.0417 0.644531 18.4592V12.6201C0.644531 12.6201 22.7664 7.80477 26.3377 6.52371C29.9088 5.2422 31.1479 5.19617 34.187 6.30937C37.2268 7.4228 55.3994 10.7008 58.4029 11.8012L58.4015 17.5571C58.402 18.1336 57.7089 18.7667 56.1399 19.5845Z" fill="#B1140A"/>
<path d="M56.1386 13.7808C53.0564 15.3872 37.0894 21.9527 33.69 23.7248C30.2909 25.4968 28.4024 25.4794 25.7171 24.1963C23.0318 22.9125 6.04003 16.0483 2.97952 14.5856C-0.0814466 13.1232 -0.145297 12.1158 2.86107 10.9383C5.86766 9.761 22.7663 3.13165 26.3378 1.85014C29.9089 0.568849 31.1478 0.522823 34.1868 1.63625C37.2261 2.74968 53.0979 9.06677 56.1012 10.1671C59.1055 11.2672 59.2208 12.1744 56.1386 13.7808Z" fill="#F34109"/>
<path d="M36.5816 8.10145L31.6158 8.61699L30.5041 11.2919L28.7087 8.30699L22.9746 7.79168L27.2532 6.24867L25.9694 3.88013L29.9753 5.44682L33.7517 4.21043L32.731 6.65952L36.5816 8.10145ZM30.2077 21.0786L20.9399 17.2347L34.2198 15.1962L30.2077 21.0786ZM17.3587 9.58827C21.2788 9.58827 24.4567 10.8202 24.4567 12.3395C24.4567 13.8592 21.2788 15.0909 17.3587 15.0909C13.4386 15.0909 10.2607 13.859 10.2607 12.3395C10.2607 10.8202 13.4386 9.58827 17.3587 9.58827Z" fill="white"/>
<path d="M42.4504 8.8325L50.3101 11.9384L42.4572 15.0413L42.4504 8.83228" fill="#8D2109"/>
<path d="M33.7549 12.2721L42.4502 8.83252L42.457 15.0413L41.6044 15.3748L33.7549 12.2721Z" fill="#CD5151"/>
</g>
<defs>
<clipPath id="clip0_574_6968">
<rect width="57.7701" height="49.6361" fill="white" transform="translate(0.644531 0.710693)"/>
</clipPath>
</defs>
</svg>
