<svg width="63" height="59" viewBox="0 0 63 59" fill="none" xmlns="http://www.w3.org/2000/svg">
<g clip-path="url(#clip0_574_6873)">
<path d="M43.3157 40.842C45.5706 40.6104 47.2813 38.68 47.2035 36.3637C47.1257 34.0473 45.1818 32.1941 42.8491 32.1941H42.6936C40.2832 32.2714 38.417 34.2789 38.4948 36.6725C38.5725 37.8307 39.0391 38.8345 39.7389 39.5294C37.0951 44.7027 33.0518 48.4861 26.9868 51.6518C22.8657 53.8138 18.5891 54.5859 14.3125 54.0454C10.8134 53.5822 8.09197 52.0379 6.38132 49.4899C3.89312 45.7064 3.65985 41.6141 5.75927 37.5219C7.23665 34.5878 9.56934 32.4258 11.0467 31.3448C10.7357 30.341 10.2692 28.6423 10.0359 27.4069C-1.23881 35.5143 -0.072467 46.4786 3.34882 51.6518C5.91478 55.5125 11.1245 57.9061 16.8785 57.9061C18.4336 57.9061 19.9887 57.7517 21.5438 57.3656C31.4967 55.4353 39.0391 49.5671 43.3157 40.842ZM57.0008 31.2676C51.0913 24.3956 42.3826 20.6122 32.4298 20.6122H31.1857C30.4858 19.2224 29.0085 18.2958 27.3756 18.2958H27.2201C24.8096 18.373 22.9435 20.3806 23.0212 22.7742C23.099 25.0905 25.0429 26.9437 27.3756 26.9437H27.5311C29.2417 26.8664 30.7191 25.7855 31.3412 24.3184H32.7408C38.6503 24.3184 44.2487 26.0171 49.3029 29.3373C53.1908 31.8853 55.99 35.2055 57.5451 39.2205C58.867 42.4635 58.7892 45.6292 57.3896 48.3317C55.2124 52.424 51.5579 54.6631 46.737 54.6631C43.6267 54.6631 40.672 53.7366 39.1168 53.0417C38.2615 53.8138 36.7064 55.0492 35.6178 55.8213C38.9613 57.3656 42.3826 58.2149 45.6484 58.2149C53.113 58.2149 58.6337 54.1227 60.7331 50.0304C62.9881 45.552 62.8326 37.8307 57.0008 31.2676ZM17.5005 42.1546C17.5783 44.471 19.5222 46.3241 21.8549 46.3241H22.0104C24.4208 46.2469 26.287 44.2394 26.2092 41.8458C26.1315 39.5294 24.1876 37.6763 21.8549 37.6763H21.6994C21.5438 37.6763 21.3106 37.6763 21.1551 37.7535C17.967 32.503 16.6452 26.7892 17.1117 20.6122C17.4228 15.9794 18.9779 11.9643 21.6994 8.64417C23.9543 5.78729 28.3087 4.39745 31.2634 4.32024C39.5056 4.16581 43.0046 14.3579 43.2379 18.4502C44.2487 18.6819 45.9594 19.2224 47.1257 19.6084C46.1927 7.09991 38.417 0.614014 30.9524 0.614014C23.9543 0.614014 17.5005 5.63286 14.9345 13.0453C11.3577 22.9286 13.6904 32.4258 18.0448 39.9155C17.656 40.4559 17.4228 41.3053 17.5005 42.1546Z" fill="#764ABC"/>
</g>
<defs>
<clipPath id="clip0_574_6873">
<rect width="61.1033" height="57.8299" fill="white" transform="translate(0.976562 0.61377)"/>
</clipPath>
</defs>
</svg>
