<svg width="55" height="55" viewBox="0 0 55 55" fill="none" xmlns="http://www.w3.org/2000/svg">
<g clip-path="url(#clip0_574_6864)">
<path d="M0.13501 27.5287V54.9234H54.9261V0.132324H0.13501V27.5287ZM44.2892 25.3457C45.6804 25.6933 46.7419 26.3114 47.7161 27.3198C48.2212 27.8592 48.9686 28.8419 49.0294 29.0765C49.0465 29.145 46.664 30.7459 45.2198 31.6422C45.1684 31.6764 44.9587 31.4513 44.7233 31.1029C44.0187 30.0756 43.2799 29.633 42.149 29.5551C40.4882 29.4421 39.4096 30.3118 39.4267 31.7638C39.4267 32.1901 39.4866 32.4418 39.6612 32.7911C40.0268 33.5478 40.7057 33.9998 42.8356 34.9227C46.7582 36.6092 48.4361 37.7221 49.4788 39.3058C50.6431 41.0711 50.905 43.8893 50.114 45.985C49.2442 48.2639 47.0878 49.8117 44.0529 50.3254C43.1138 50.4906 40.8872 50.4649 39.8787 50.2826C37.6786 49.8913 35.5914 48.8041 34.3039 47.3779C33.7988 46.8214 32.8169 45.3686 32.8776 45.2633C32.9033 45.2291 33.1302 45.0895 33.3827 44.9414L35.4176 43.7686L36.9928 42.8552L37.3233 43.3431C37.7838 44.0477 38.7932 45.0125 39.4018 45.3344C41.15 46.2564 43.5504 46.1254 44.7327 45.0647C45.2378 44.6042 45.4458 44.1256 45.4458 43.421C45.4458 42.7858 45.3688 42.5076 45.0374 42.0299C44.6111 41.4221 43.7413 40.9084 41.2707 39.8383C38.4439 38.621 37.2265 37.8642 36.1136 36.664C35.4699 35.968 34.8612 34.8551 34.6086 33.9245C34.3998 33.1506 34.3475 31.2107 34.5128 30.4283C35.0949 27.6888 37.1563 25.7926 40.1312 25.2276C41.0969 25.0452 43.3415 25.1146 44.2884 25.3491L44.2892 25.3457ZM31.4266 27.6314L31.4437 29.8744H24.3125V50.1379H19.2685V29.8744H12.1373V27.6742L12.1972 25.4142C12.2229 25.3799 16.5633 25.3628 21.8247 25.3714L31.4 25.3971L31.4266 27.6314Z" fill="#007ACC"/>
</g>
<defs>
<clipPath id="clip0_574_6864">
<rect width="54.7893" height="54.7893" fill="white" transform="translate(0.134766 0.134277)"/>
</clipPath>
</defs>
</svg>
