<svg width="115" height="43" viewBox="0 0 115 43" fill="none" xmlns="http://www.w3.org/2000/svg">
<mask id="mask0_761_9134" style="mask-type:alpha" maskUnits="userSpaceOnUse" x="0" y="16" width="22" height="23">
<rect x="9.00244" y="38.5613" width="16.944" height="14.2833" transform="rotate(-120 9.00244 38.5613)" fill="url(#paint0_radial_761_9134)"/>
</mask>
<g mask="url(#mask0_761_9134)">
<path fill-rule="evenodd" clip-rule="evenodd" d="M13.3085 21.219L9.8261 28.332C8.65925 28.4544 6.36366 28.4475 6.51604 27.441L11.2813 17.7077L13.3085 21.219Z" fill="black"/>
<path fill-rule="evenodd" clip-rule="evenodd" d="M13.3085 21.219L9.8261 28.332C8.65925 28.4544 6.36366 28.4475 6.51604 27.441L11.2813 17.7077L13.3085 21.219Z" fill="url(#paint1_linear_761_9134)"/>
</g>
<path fill-rule="evenodd" clip-rule="evenodd" d="M9.82631 28.3321L22.6703 28.3421L21.7591 31.6961L9.16763 31.6961C6.98272 31.6939 5.55553 29.4035 6.51626 27.4411C6.36387 28.4476 8.65947 28.4545 9.82631 28.3321Z" fill="black"/>
<path fill-rule="evenodd" clip-rule="evenodd" d="M9.82631 28.3321L22.6703 28.3421L21.7591 31.6961L9.16763 31.6961C6.98272 31.6939 5.55553 29.4035 6.51626 27.4411C6.36387 28.4476 8.65947 28.4545 9.82631 28.3321Z" fill="url(#paint2_linear_761_9134)"/>
<mask id="mask1_761_9134" style="mask-type:alpha" maskUnits="userSpaceOnUse" x="9" y="8" width="18" height="15">
<rect x="9.45325" y="8.0874" width="16.944" height="14.2833" fill="url(#paint3_radial_761_9134)"/>
</mask>
<g mask="url(#mask1_761_9134)">
<path fill-rule="evenodd" clip-rule="evenodd" d="M22.3187 20.4881L17.8998 13.9158C18.3773 12.8441 19.531 10.8595 20.3265 11.4947L26.3731 20.4881H22.3187Z" fill="black"/>
<path fill-rule="evenodd" clip-rule="evenodd" d="M22.3187 20.4881L17.8998 13.9158C18.3773 12.8441 19.531 10.8595 20.3265 11.4947L26.3731 20.4881H22.3187Z" fill="url(#paint4_linear_761_9134)"/>
</g>
<path fill-rule="evenodd" clip-rule="evenodd" d="M17.9002 13.9155L11.4696 25.0338L9.02049 22.5676L15.3162 11.6631C16.4106 9.77205 19.1078 9.68127 20.3269 11.4945C19.5314 10.8592 18.3776 12.8438 17.9002 13.9155Z" fill="black"/>
<path fill-rule="evenodd" clip-rule="evenodd" d="M17.9002 13.9155L11.4696 25.0338L9.02049 22.5676L15.3162 11.6631C16.4106 9.77205 19.1078 9.68127 20.3269 11.4945C19.5314 10.8592 18.3776 12.8438 17.9002 13.9155Z" fill="url(#paint5_linear_761_9134)"/>
<mask id="mask2_761_9134" style="mask-type:alpha" maskUnits="userSpaceOnUse" x="14" y="16" width="22" height="23">
<rect x="35.5464" y="23.6555" width="16.944" height="14.2833" transform="rotate(120 35.5464 23.6555)" fill="url(#paint6_radial_761_9134)"/>
</mask>
<g mask="url(#mask2_761_9134)">
<path fill-rule="evenodd" clip-rule="evenodd" d="M18.3745 28.5973L26.2757 28.0567C26.9651 29.006 28.107 30.9975 27.1591 31.3688L16.3472 32.1086L18.3745 28.5973Z" fill="black"/>
<path fill-rule="evenodd" clip-rule="evenodd" d="M18.3745 28.5973L26.2757 28.0567C26.9651 29.006 28.107 30.9975 27.1591 31.3688L16.3472 32.1086L18.3745 28.5973Z" fill="url(#paint7_linear_761_9134)"/>
</g>
<path fill-rule="evenodd" clip-rule="evenodd" d="M26.2756 28.0568L19.8622 16.9286L23.2226 16.0407L29.5183 26.9452C30.6088 28.8385 29.3388 31.2197 27.159 31.3689C28.1069 30.9976 26.965 29.0061 26.2756 28.0568Z" fill="black"/>
<path fill-rule="evenodd" clip-rule="evenodd" d="M26.2756 28.0568L19.8622 16.9286L23.2226 16.0407L29.5183 26.9452C30.6088 28.8385 29.3388 31.2197 27.159 31.3689C28.1069 30.9976 26.965 29.0061 26.2756 28.0568Z" fill="url(#paint8_linear_761_9134)"/>
<path d="M51.4208 13.9026V27.6252H48.9148L42.9446 18.9883H42.8441V27.6252H39.9428V13.9026H42.489L48.4123 22.5328H48.5329V13.9026H51.4208ZM54.1953 13.9026H57.7734L61.5525 23.1225H61.7133L65.4924 13.9026H69.0705V27.6252H66.2562V18.6934H66.1423L62.5911 27.5582H60.6747L57.1234 18.6599H57.0095V27.6252H54.1953V13.9026ZM71.8382 27.6252V13.9026H77.3327C78.3422 13.9026 79.1842 14.0522 79.8588 14.3515C80.5333 14.6508 81.0403 15.0662 81.3798 15.5978C81.7193 16.1249 81.889 16.7324 81.889 17.4203C81.889 17.9564 81.7818 18.4277 81.5674 18.8342C81.353 19.2362 81.0582 19.5667 80.6829 19.8258C80.3122 20.0805 79.8878 20.2614 79.4098 20.3686V20.5026C79.9325 20.5249 80.4216 20.6723 80.8772 20.9448C81.3373 21.2173 81.7103 21.5992 81.9962 22.0906C82.2821 22.5775 82.4251 23.1582 82.4251 23.8327C82.4251 24.5609 82.2442 25.2108 81.8823 25.7826C81.525 26.3499 80.9956 26.7988 80.2943 27.1294C79.593 27.46 78.7286 27.6252 77.7012 27.6252H71.8382ZM74.7396 25.2533H77.1049C77.9134 25.2533 78.503 25.0991 78.8738 24.7909C79.2446 24.4782 79.4299 24.0628 79.4299 23.5446C79.4299 23.1649 79.3384 22.8299 79.1552 22.5395C78.9721 22.2492 78.7107 22.0214 78.3713 21.8561C78.0362 21.6908 77.6364 21.6082 77.1719 21.6082H74.7396V25.2533ZM74.7396 19.6449H76.8904C77.288 19.6449 77.6409 19.5757 77.9491 19.4372C78.2618 19.2943 78.5075 19.0932 78.6862 18.8342C78.8693 18.5751 78.9609 18.2646 78.9609 17.9028C78.9609 17.4069 78.7844 17.0071 78.4316 16.7034C78.0831 16.3996 77.5873 16.2478 76.944 16.2478H74.7396V19.6449ZM87.5916 13.9026V27.6252H84.6903V13.9026H87.5916ZM89.8334 16.2947V13.9026H101.104V16.2947H96.9025V27.6252H94.0347V16.2947H89.8334ZM110.781 17.8492C110.728 17.3087 110.498 16.8888 110.091 16.5895C109.685 16.2902 109.133 16.1405 108.436 16.1405C107.963 16.1405 107.563 16.2076 107.237 16.3416C106.911 16.4711 106.661 16.652 106.486 16.8843C106.317 17.1166 106.232 17.3801 106.232 17.675C106.223 17.9207 106.274 18.1351 106.386 18.3182C106.502 18.5014 106.661 18.6599 106.862 18.794C107.063 18.9235 107.295 19.0374 107.558 19.1357C107.822 19.2295 108.103 19.3099 108.403 19.3769L109.636 19.6717C110.234 19.8057 110.784 19.9844 111.284 20.2078C111.784 20.4311 112.218 20.7058 112.584 21.0319C112.95 21.358 113.234 21.7422 113.435 22.1844C113.64 22.6267 113.745 23.1337 113.75 23.7054C113.745 24.5452 113.531 25.2734 113.106 25.8898C112.687 26.5018 112.079 26.9775 111.284 27.317C110.493 27.652 109.54 27.8196 108.423 27.8196C107.315 27.8196 106.35 27.6498 105.528 27.3103C104.711 26.9708 104.072 26.4683 103.612 25.8027C103.156 25.1326 102.917 24.304 102.895 23.3168H105.702C105.734 23.7769 105.865 24.1611 106.098 24.4693C106.334 24.7731 106.649 25.0031 107.043 25.1595C107.44 25.3113 107.889 25.3873 108.389 25.3873C108.881 25.3873 109.307 25.3158 109.669 25.1729C110.035 25.0299 110.319 24.8311 110.52 24.5765C110.721 24.3219 110.822 24.0293 110.822 23.6987C110.822 23.3905 110.73 23.1314 110.547 22.9215C110.368 22.7115 110.105 22.5328 109.756 22.3854C109.412 22.238 108.99 22.104 108.49 21.9834L106.996 21.6082C105.839 21.3268 104.925 20.8868 104.255 20.2882C103.585 19.6896 103.252 18.8833 103.257 17.8693C103.252 17.0384 103.473 16.3125 103.92 15.6916C104.371 15.0707 104.99 14.586 105.776 14.2376C106.562 13.8892 107.456 13.715 108.456 13.715C109.475 13.715 110.364 13.8892 111.123 14.2376C111.887 14.586 112.481 15.0707 112.905 15.6916C113.33 16.3125 113.549 17.0317 113.562 17.8492H110.781Z" fill="black"/>
<defs>
<radialGradient id="paint0_radial_761_9134" cx="0" cy="0" r="1" gradientUnits="userSpaceOnUse" gradientTransform="translate(17.6939 43.1963) rotate(77.9901) scale(3.86666 19.7482)">
<stop stop-color="#D9D9D9"/>
<stop offset="1" stop-color="#D9D9D9" stop-opacity="0"/>
</radialGradient>
<linearGradient id="paint1_linear_761_9134" x1="6.41627" y1="29.8811" x2="16.9621" y2="23.7925" gradientUnits="userSpaceOnUse">
<stop stop-color="#008AFF"/>
<stop offset="1" stop-color="#0B38DA"/>
</linearGradient>
<linearGradient id="paint2_linear_761_9134" x1="6.41649" y1="29.8813" x2="16.9623" y2="23.7926" gradientUnits="userSpaceOnUse">
<stop stop-color="#24C2FF"/>
<stop offset="1" stop-color="#037BF8"/>
</linearGradient>
<radialGradient id="paint3_radial_761_9134" cx="0" cy="0" r="1" gradientUnits="userSpaceOnUse" gradientTransform="translate(18.1447 12.7224) rotate(77.9901) scale(3.86666 19.7482)">
<stop stop-color="#D9D9D9"/>
<stop offset="1" stop-color="#D9D9D9" stop-opacity="0"/>
</radialGradient>
<linearGradient id="paint4_linear_761_9134" x1="18.2632" y1="10.1882" x2="18.2632" y2="22.3655" gradientUnits="userSpaceOnUse">
<stop stop-color="#008AFF"/>
<stop offset="1" stop-color="#0B38DA"/>
</linearGradient>
<linearGradient id="paint5_linear_761_9134" x1="18.2635" y1="10.188" x2="18.2635" y2="22.3652" gradientUnits="userSpaceOnUse">
<stop stop-color="#24C2FF"/>
<stop offset="1" stop-color="#037BF8"/>
</linearGradient>
<radialGradient id="paint6_radial_761_9134" cx="0" cy="0" r="1" gradientUnits="userSpaceOnUse" gradientTransform="translate(44.2378 28.2905) rotate(77.9901) scale(3.86666 19.7482)">
<stop stop-color="#D9D9D9"/>
<stop offset="1" stop-color="#D9D9D9" stop-opacity="0"/>
</radialGradient>
<linearGradient id="paint7_linear_761_9134" x1="29.3222" y1="30.2351" x2="18.7764" y2="24.1465" gradientUnits="userSpaceOnUse">
<stop stop-color="#008AFF"/>
<stop offset="1" stop-color="#0B38DA"/>
</linearGradient>
<linearGradient id="paint8_linear_761_9134" x1="29.3221" y1="30.2352" x2="18.7763" y2="24.1466" gradientUnits="userSpaceOnUse">
<stop stop-color="#24C2FF"/>
<stop offset="1" stop-color="#037BF8"/>
</linearGradient>
</defs>
</svg>
