<svg width="20" height="20" viewBox="0 0 20 20" fill="none" xmlns="http://www.w3.org/2000/svg">
<path d="M3.84131 3.86115C3.621 3.87919 3.45071 3.90462 3.31377 3.93637L7.36332 7.4887C7.94697 8.00068 8.34659 8.35041 8.67934 8.59987C9.003 8.84251 9.20887 8.94739 9.387 9.00019C9.7871 9.11882 10.2129 9.11882 10.613 9.00019C10.7911 8.94739 10.997 8.84251 11.3207 8.59987C11.6534 8.35041 12.053 8.00068 12.6367 7.4887L16.6862 3.93637C16.5493 3.90462 16.379 3.87919 16.1587 3.86115C15.699 3.82349 15.106 3.82279 14.2424 3.82279H5.75758C4.89401 3.82279 4.30101 3.82349 3.84131 3.86115Z" fill="#3F8CD6"/>
<path d="M1.9701 5.17974C1.92006 5.33739 1.88126 5.54657 1.85645 5.85103C1.81889 6.3119 1.81818 6.9064 1.81818 7.77215V12.2278C1.81818 13.0936 1.81889 13.6881 1.85645 14.149C1.89314 14.5992 1.96042 14.841 2.04938 15.0161C2.25275 15.4162 2.57725 15.7415 2.97638 15.9454C3.15098 16.0346 3.39222 16.1021 3.84131 16.1389C4.30101 16.1765 4.89401 16.1772 5.75758 16.1772H14.2424C15.106 16.1772 15.699 16.1765 16.1587 16.1389C16.6078 16.1021 16.849 16.0346 17.0236 15.9454C17.4227 15.7415 17.7473 15.4162 17.9506 15.0161C18.0396 14.841 18.1069 14.5992 18.1436 14.149C18.1811 13.6881 18.1818 13.0936 18.1818 12.2278V7.77215C18.1818 6.9064 18.1811 6.3119 18.1436 5.85103C18.1187 5.54657 18.0799 5.33739 18.0299 5.17974L13.834 8.86048L13.8075 8.88371C13.2568 9.36676 12.8049 9.76324 12.4095 10.0596C11.9988 10.3676 11.5955 10.6097 11.1286 10.7481C10.392 10.9665 9.60803 10.9665 8.87138 10.7481C8.40447 10.6097 8.00124 10.3676 7.59048 10.0596C7.19515 9.76325 6.7432 9.36679 6.19257 8.88375L6.16604 8.86048L1.9701 5.17974Z" fill="#3F8CD6"/>
</svg>
