<svg width="44" height="44" viewBox="0 0 44 44" fill="none" xmlns="http://www.w3.org/2000/svg">
<rect width="44" height="44" rx="22" fill="#3F8CD6" fill-opacity="0.08"/>
<path d="M18.8041 15.3009L19.5223 16.1545C20.5171 17.3343 20.4139 19.1118 19.2854 20.2403L18.6729 20.8521C18.5096 21.0157 18.4561 21.2592 18.5359 21.4762C18.7587 22.0855 19.3275 22.8467 20.2405 23.7598C21.1544 24.6737 21.9155 25.2417 22.5239 25.4654C22.741 25.545 22.9846 25.4912 23.148 25.3276L23.7597 24.7158C24.8882 23.5872 26.6647 23.4832 27.846 24.4764L28.6996 25.1955C29.6737 26.0153 29.7728 27.4931 28.9192 28.4953C28.4537 29.0339 27.7985 29.3722 27.0899 29.4398C24.3624 29.8072 21.5011 28.4929 18.5045 25.496C15.5079 22.4991 14.1928 19.6368 14.5602 16.9099C14.5793 16.6966 14.6236 16.4862 14.6922 16.2833C14.8511 15.8172 15.1315 15.4019 15.5046 15.0804C16.5076 14.2276 17.9844 14.3258 18.8041 15.3009Z" fill="#3F8CD6"/>
</svg>
